<?xml version="1.0" encoding="UTF-8" standalone="no"?>
<!-- Generator: Adobe Illustrator 16.0.0, SVG Export Plug-In . SVG Version: 6.00 Build 0)  -->

<svg
   xmlns:dc="http://purl.org/dc/elements/1.1/"
   xmlns:cc="http://creativecommons.org/ns#"
   xmlns:rdf="http://www.w3.org/1999/02/22-rdf-syntax-ns#"
   xmlns:svg="http://www.w3.org/2000/svg"
   xmlns="http://www.w3.org/2000/svg"
   xmlns:sodipodi="http://sodipodi.sourceforge.net/DTD/sodipodi-0.dtd"
   xmlns:inkscape="http://www.inkscape.org/namespaces/inkscape"
   version="1.1"
   id="Camada_1"
   x="0px"
   y="0px"
   width="540"
   height="116"
   viewBox="0 0 540.00001 116"
   enable-background="new 0 0 560.972 151.493"
   xml:space="preserve"
   inkscape:version="0.91 r13725"
   sodipodi:docname="logo-mti-cinza.svg"
   inkscape:export-filename="C:\Users\c8757500\Desktop\logo-mti-cinza.png"
   inkscape:export-xdpi="90"
   inkscape:export-ydpi="90"><metadata
     id="metadata377"><rdf:RDF><cc:Work
         rdf:about=""><dc:format>image/svg+xml</dc:format><dc:type
           rdf:resource="http://purl.org/dc/dcmitype/StillImage" /><dc:title></dc:title></cc:Work></rdf:RDF></metadata><defs
     id="defs375" /><sodipodi:namedview
     pagecolor="#ffffff"
     bordercolor="#666666"
     borderopacity="1"
     objecttolerance="10"
     gridtolerance="10"
     guidetolerance="10"
     inkscape:pageopacity="0"
     inkscape:pageshadow="2"
     inkscape:window-width="1163"
     inkscape:window-height="681"
     id="namedview373"
     showgrid="false"
     inkscape:zoom="0.63996066"
     inkscape:cx="257.58816"
     inkscape:cy="-7.9053438"
     inkscape:window-x="0"
     inkscape:window-y="0"
     inkscape:window-maximized="0"
     inkscape:current-layer="Camada_1"
     showguides="true" /><path
     inkscape:connector-curvature="0"
     d="m 347.98284,33.016378 c -0.566,-0.544 -1.41,-0.844 -2.145,-0.844 -1.809,0 -2.906,1.373 -2.906,3.11 0,1.386 0.807,2.821 2.906,2.821 0.662,0 1.242,-0.145 1.904,-0.676 l 0,-1.494 -2.158,0 0,-1.423 3.617,0 0,3.558 c -0.832,0.952 -1.881,1.52 -3.363,1.52 -3.172,0 -4.463,-2.085 -4.463,-4.305 0,-2.375 1.482,-4.571 4.463,-4.571 1.133,0 2.264,0.434 3.133,1.291 l -0.988,1.013 z"
     id="path3"
     style="fill:#666f77;fill-opacity:1" /><path
     inkscape:connector-curvature="0"
     d="m 358.79284,35.223378 c -0.023,2.182 -1.363,4.364 -4.328,4.364 -2.969,0 -4.342,-2.132 -4.342,-4.354 0,-2.218 1.422,-4.45 4.342,-4.45 2.907,0.001 4.354,2.233 4.328,4.44 m -7.103,0.036 c 0.037,1.386 0.785,2.868 2.775,2.868 1.988,0 2.736,-1.494 2.762,-2.881 0.023,-1.421 -0.773,-3.015 -2.762,-3.015 -1.99,10e-4 -2.812,1.604 -2.775,3.028"
     id="path5"
     style="fill:#666f77;fill-opacity:1" /><polygon
     points="379.18,49.411 380.963,49.411 383.508,55.983 386.063,49.411 387.848,49.411 384.34,57.887 382.686,57.887 "
     id="polygon7"
     style="fill:#666f77;fill-opacity:1"
     transform="translate(-20.187159,-18.456622)" /><polygon
     points="395.115,50.955 390.373,50.955 390.373,52.895 394.945,52.895 394.945,54.377 390.373,54.377 390.373,56.284 395.115,56.284 395.115,57.851 388.795,57.851 388.795,49.411 395.115,49.411 "
     id="polygon9"
     style="fill:#666f77;fill-opacity:1"
     transform="translate(-20.187159,-18.456622)" /><path
     inkscape:connector-curvature="0"
     d="m 383.63884,39.394378 -1.893,0 -2.459,-2.821 -1.533,0 0,2.821 -1.59,0 0,-8.452 c 1.336,0 2.676,0.012 4.014,0.012 1.99,0.012 3.039,1.338 3.039,2.798 0,1.157 -0.531,2.326 -2.135,2.653 l 2.557,2.881 0,0.108 z m -5.885,-6.958 0,2.702 2.424,0 c 1.012,0 1.447,-0.677 1.447,-1.351 0,-0.676 -0.447,-1.352 -1.447,-1.352 l -2.424,0 z"
     id="path11"
     style="fill:#666f77;fill-opacity:1" /><polygon
     points="406.182,52.161 406.182,57.851 404.592,57.851 404.592,49.411 405.883,49.411 410.018,54.643 410.018,49.399 411.607,49.399 411.607,57.851 410.621,57.851 410.621,57.864 "
     id="polygon13"
     style="fill:#666f77;fill-opacity:1"
     transform="translate(-20.187159,-18.456622)" /><path
     inkscape:connector-curvature="0"
     d="m 401.29284,35.223378 c -0.023,2.182 -1.363,4.364 -4.328,4.364 -2.969,0 -4.344,-2.132 -4.344,-4.354 0,-2.218 1.424,-4.45 4.344,-4.45 2.905,0.001 4.354,2.233 4.328,4.44 m -7.103,0.036 c 0.037,1.386 0.785,2.868 2.775,2.868 1.988,0 2.736,-1.494 2.76,-2.881 0.025,-1.421 -0.771,-3.015 -2.76,-3.015 -1.99,10e-4 -2.812,1.604 -2.775,3.028"
     id="path15"
     style="fill:#666f77;fill-opacity:1" /><path
     inkscape:connector-curvature="0"
     d="m 412.31684,35.102378 c 0.037,2.135 -1.266,4.292 -4.221,4.292 l -3.316,0 0,-8.44 3.316,0 c 2.895,0 4.186,2.062 4.221,4.148 m -5.957,2.762 1.736,0 c 1.918,0 2.678,-1.399 2.643,-2.774 -0.037,-1.313 -0.809,-2.628 -2.643,-2.628 l -1.736,0 0,5.402 z"
     id="path17"
     style="fill:#666f77;fill-opacity:1" /><polygon
     points="439.842,50.955 435.102,50.955 435.102,52.895 439.672,52.895 439.672,54.377 435.102,54.377 435.102,56.284 439.842,56.284 439.842,57.851 433.523,57.851 433.523,49.411 439.842,49.411 "
     id="polygon19"
     style="fill:#666f77;fill-opacity:1"
     transform="translate(-20.187159,-18.456622)" /><polygon
     points="368.195,93.582 363.455,93.582 363.455,95.523 368.025,95.523 368.025,97.005 363.455,97.005 363.455,98.914 368.195,98.914 368.195,100.479 361.877,100.479 361.877,92.039 368.195,92.039 "
     id="polygon21"
     style="fill:#666f77;fill-opacity:1"
     transform="translate(-20.187159,-18.456622)" /><path
     inkscape:connector-curvature="0"
     d="m 354.69384,75.620378 c -0.289,-0.484 -1.084,-0.939 -2,-0.939 -1.182,0 -1.75,0.491 -1.75,1.12 0,0.734 0.869,0.94 1.881,1.06 1.76,0.221 3.402,0.676 3.402,2.689 0,1.883 -1.664,2.689 -3.547,2.689 -1.725,0 -3.051,-0.528 -3.678,-2.071 l 1.326,-0.69 c 0.375,0.929 1.352,1.341 2.375,1.341 1.002,0 1.941,-0.351 1.941,-1.269 0,-0.796 -0.832,-1.117 -1.951,-1.24 -1.725,-0.206 -3.316,-0.665 -3.316,-2.556 0,-1.738 1.711,-2.45 3.268,-2.461 1.313,0 2.676,0.372 3.316,1.677 l -1.267,0.65 z"
     id="path23"
     style="fill:#666f77;fill-opacity:1" /><polygon
     points="379.82,93.484 377.143,93.484 377.143,92.039 384.088,92.039 384.088,93.484 381.41,93.484 381.41,100.479 379.82,100.479 "
     id="polygon25"
     style="fill:#666f77;fill-opacity:1"
     transform="translate(-20.187159,-18.456622)" /><path
     inkscape:connector-curvature="0"
     d="m 370.85184,80.431378 -4.412,0 -0.723,1.594 -1.725,0 3.787,-8.443 1.734,0 3.787,8.443 -1.738,0 -0.71,-1.594 z m -2.205,-5.079 -1.566,3.597 3.133,0 -1.567,-3.597 z"
     id="path27"
     style="fill:#666f77;fill-opacity:1" /><path
     inkscape:connector-curvature="0"
     d="m 381.69984,77.731378 c 0.035,2.133 -1.268,4.291 -4.223,4.291 l -3.316,0 0,-8.44 3.316,0 c 2.897,0 4.186,2.063 4.223,4.149 m -5.957,2.762 1.734,0 c 1.918,0 2.68,-1.399 2.643,-2.776 -0.035,-1.313 -0.809,-2.628 -2.643,-2.628 l -1.734,0 0,5.404 z"
     id="path29"
     style="fill:#666f77;fill-opacity:1" /><path
     inkscape:connector-curvature="0"
     d="m 391.15884,77.850378 c -0.023,2.184 -1.361,4.366 -4.328,4.366 -2.967,0 -4.342,-2.132 -4.342,-4.355 0,-2.216 1.424,-4.449 4.342,-4.449 2.906,0 4.353,2.233 4.328,4.438 m -7.102,0.036 c 0.035,1.389 0.783,2.87 2.773,2.87 1.99,0 2.736,-1.496 2.762,-2.881 0.023,-1.421 -0.771,-3.015 -2.762,-3.015 -1.991,0 -2.812,1.602 -2.773,3.026"
     id="path31"
     style="fill:#666f77;fill-opacity:1" /><path
     inkscape:connector-curvature="0"
     d="m 402.18384,77.731378 c 0.035,2.133 -1.268,4.291 -4.223,4.291 l -3.316,0 0,-8.44 3.316,0 c 2.897,0 4.186,2.063 4.223,4.149 m -5.957,2.762 1.734,0 c 1.918,0 2.68,-1.399 2.643,-2.776 -0.035,-1.313 -0.807,-2.628 -2.643,-2.628 l -1.734,0 0,5.404 z"
     id="path33"
     style="fill:#666f77;fill-opacity:1" /><polygon
     points="429.709,93.582 424.969,93.582 424.969,95.523 429.539,95.523 429.539,97.005 424.969,97.005 424.969,98.914 429.709,98.914 429.709,100.479 423.391,100.479 423.391,92.039 429.709,92.039 "
     id="polygon35"
     style="fill:#666f77;fill-opacity:1"
     transform="translate(-20.187159,-18.456622)" /><polygon
     points="435.551,93.484 432.871,93.484 432.871,92.039 439.818,92.039 439.818,93.484 437.139,93.484 437.139,100.479 435.551,100.479 "
     id="polygon37"
     style="fill:#666f77;fill-opacity:1"
     transform="translate(-20.187159,-18.456622)" /><path
     inkscape:connector-curvature="0"
     d="m 428.07884,82.022378 -1.893,0 -2.461,-2.82 -1.531,0 0,2.82 -1.592,0 0,-8.451 c 1.338,0 2.678,0.011 4.016,0.011 1.988,0.011 3.039,1.337 3.039,2.798 0,1.156 -0.531,2.327 -2.135,2.653 l 2.557,2.881 0,0.108 z m -5.885,-6.959 0,2.704 2.424,0 c 1.012,0 1.447,-0.676 1.447,-1.352 0,-0.677 -0.447,-1.353 -1.447,-1.353 l -2.424,0 z"
     id="path39"
     style="fill:#666f77;fill-opacity:1" /><path
     inkscape:connector-curvature="0"
     d="m 434.71484,80.431378 -4.412,0 -0.723,1.594 -1.727,0 3.787,-8.443 1.736,0 3.785,8.443 -1.736,0 -0.71,-1.594 z m -2.205,-5.079 -1.57,3.597 3.137,0 -1.567,-3.597 z"
     id="path41"
     style="fill:#666f77;fill-opacity:1" /><polygon
     points="459.779,94.789 459.779,100.479 458.189,100.479 458.189,92.039 459.48,92.039 463.615,97.272 463.615,92.028 465.207,92.028 465.207,100.479 464.219,100.479 464.219,100.493 "
     id="polygon43"
     style="fill:#666f77;fill-opacity:1"
     transform="translate(-20.187159,-18.456622)" /><path
     inkscape:connector-curvature="0"
     d="m 451.81284,75.620378 c -0.289,-0.484 -1.084,-0.939 -2,-0.939 -1.182,0 -1.75,0.491 -1.75,1.12 0,0.734 0.869,0.94 1.883,1.06 1.758,0.221 3.4,0.676 3.4,2.689 0,1.883 -1.664,2.689 -3.545,2.689 -1.727,0 -3.051,-0.528 -3.68,-2.071 l 1.328,-0.69 c 0.373,0.929 1.35,1.341 2.375,1.341 1,0 1.939,-0.351 1.939,-1.269 0,-0.796 -0.832,-1.117 -1.951,-1.24 -1.725,-0.206 -3.316,-0.665 -3.316,-2.556 0,-1.738 1.711,-2.45 3.268,-2.461 1.314,0 2.678,0.372 3.316,1.677 l -1.267,0.65 z"
     id="path45"
     style="fill:#666f77;fill-opacity:1" /><polygon
     points="480.578,95.884 480.578,97.359 476.348,97.359 476.348,100.479 474.758,100.479 474.758,92.049 480.822,92.049 480.822,93.582 476.348,93.582 476.348,95.884 "
     id="polygon47"
     style="fill:#666f77;fill-opacity:1"
     transform="translate(-20.187159,-18.456622)" /><path
     inkscape:connector-curvature="0"
     d="m 470.27584,77.850378 c -0.023,2.184 -1.363,4.366 -4.328,4.366 -2.969,0 -4.344,-2.132 -4.344,-4.355 0,-2.216 1.424,-4.449 4.344,-4.449 2.904,0 4.353,2.233 4.328,4.438 m -7.104,0.036 c 0.037,1.389 0.785,2.87 2.775,2.87 1.99,0 2.736,-1.496 2.762,-2.881 0.023,-1.421 -0.771,-3.015 -2.762,-3.015 -1.991,0 -2.812,1.602 -2.775,3.026"
     id="path49"
     style="fill:#666f77;fill-opacity:1" /><path
     inkscape:connector-curvature="0"
     d="m 478.92584,82.022378 -1.893,0 -2.459,-2.82 -1.533,0 0,2.82 -1.59,0 0,-8.451 c 1.336,0 2.676,0.011 4.014,0.011 1.99,0.011 3.039,1.337 3.039,2.798 0,1.156 -0.531,2.327 -2.135,2.653 l 2.557,2.881 0,0.108 z m -5.884,-6.959 0,2.704 2.424,0 c 1.012,0 1.447,-0.676 1.447,-1.352 0,-0.677 -0.447,-1.353 -1.447,-1.353 l -2.424,0 z"
     id="path51"
     style="fill:#666f77;fill-opacity:1" /><polygon
     points="501.361,94.355 501.361,100.493 499.771,100.493 499.771,92.049 501.602,92.049 504.244,95.682 506.885,92.049 508.703,92.049 508.703,100.493 507.113,100.493 507.113,94.366 504.365,98.032 504.051,98.032 "
     id="polygon53"
     style="fill:#666f77;fill-opacity:1"
     transform="translate(-20.187159,-18.456622)" /><path
     inkscape:connector-curvature="0"
     d="m 495.99884,80.431378 -4.412,0 -0.723,1.594 -1.727,0 3.789,-8.443 1.734,0 3.787,8.443 -1.738,0 -0.71,-1.594 z m -2.206,-5.079 -1.568,3.597 3.135,0 -1.567,-3.597 z"
     id="path55"
     style="fill:#666f77;fill-opacity:1" /><path
     inkscape:connector-curvature="0"
     d="m 501.62384,83.926378 c 0.35,0.47 1.291,0.531 1.434,0.051 0.137,-0.459 -0.563,-0.748 -1.021,-0.423 l -0.35,-0.278 0.371,-1.12 c -2.541,-0.337 -3.629,-2.303 -3.641,-4.295 -0.012,-2.205 1.424,-4.449 4.475,-4.449 1.146,0 2.23,0.434 3.096,1.29 l -1.059,1.026 c -0.555,-0.542 -1.301,-0.795 -2.037,-0.795 -2.039,0 -2.92,1.519 -2.906,2.928 0.014,1.402 0.82,2.859 2.906,2.859 0.736,0 1.566,-0.3 2.123,-0.856 l 1.084,1.099 c -0.818,0.807 -1.857,1.204 -2.99,1.254 l -0.17,0.543 c 1.109,0.036 1.35,0.784 1.244,1.384 -0.303,1.399 -2.461,1.522 -3.195,0.325 l 0.636,-0.543 z"
     id="path57"
     style="fill:#666f77;fill-opacity:1" /><path
     inkscape:connector-curvature="0"
     d="m 512.60184,80.431378 -4.412,0 -0.723,1.594 -1.725,0 3.787,-8.443 1.734,0 3.787,8.443 -1.736,0 -0.712,-1.594 z m -4.391,-8.115 c 0.291,-0.723 0.773,-1.243 1.596,-1.063 0.578,0.134 1.145,0.784 1.529,0.015 l 0.99,0.47 c -0.363,0.954 -0.977,1.24 -1.555,1.084 -0.617,-0.17 -1.146,-0.903 -1.629,0 l -0.931,-0.506 z m 2.186,3.036 -1.566,3.597 3.133,0 -1.567,-3.597 z"
     id="path59"
     style="fill:#666f77;fill-opacity:1" /><path
     inkscape:connector-curvature="0"
     d="m 523.55884,77.850378 c -0.023,2.184 -1.363,4.366 -4.33,4.366 -2.967,0 -4.342,-2.132 -4.342,-4.355 0,-2.216 1.424,-4.449 4.342,-4.449 2.906,0 4.355,2.233 4.33,4.438 m -7.103,0.036 c 0.037,1.389 0.785,2.87 2.773,2.87 1.99,0 2.736,-1.496 2.762,-2.881 0.023,-1.421 -0.771,-3.015 -2.762,-3.015 -1.988,0.001 -2.811,1.602 -2.773,3.026"
     id="path61"
     style="fill:#666f77;fill-opacity:1" /><polygon
     points="365.781,70.854 365.781,83.359 362.539,83.359 362.539,66.162 366.273,66.162 371.652,73.557 377.033,66.162 380.744,66.162 380.744,83.359 377.5,83.359 377.5,70.879 371.898,78.346 371.26,78.346 "
     id="polygon63"
     style="fill:#666f77;fill-opacity:1"
     transform="translate(-20.187159,-18.456622)" /><path
     inkscape:connector-curvature="0"
     d="m 375.82084,61.634378 -8.994,0 -1.475,3.243 -3.512,0 7.715,-17.198 3.537,0 7.717,17.198 -3.539,0 -1.449,-3.243 z m -4.496,-10.342 -3.197,7.322 6.391,0 -3.194,-7.322 z"
     id="path65"
     style="fill:#666f77;fill-opacity:1" /><polygon
     points="404.096,69.086 398.641,69.086 398.641,66.136 412.793,66.136 412.793,69.086 407.338,69.086 407.338,83.334 404.096,83.334 "
     id="polygon67"
     style="fill:#666f77;fill-opacity:1"
     transform="translate(-20.187159,-18.456622)" /><path
     inkscape:connector-curvature="0"
     d="m 411.47684,56.377378 c -0.049,4.447 -2.777,8.897 -8.82,8.897 -6.043,0 -8.844,-4.352 -8.844,-8.873 0,-4.52 2.9,-9.064 8.844,-9.064 5.924,-10e-4 8.871,4.544 8.82,9.04 m -14.469,0.073 c 0.074,2.827 1.596,5.85 5.648,5.85 4.055,0 5.576,-3.048 5.627,-5.873 0.051,-2.898 -1.572,-6.143 -5.627,-6.143 -4.052,0 -5.722,3.269 -5.648,6.166"
     id="path69"
     style="fill:#666f77;fill-opacity:1" /><path
     inkscape:connector-curvature="0"
     d="m 431.60784,51.881378 c -1.154,-1.106 -2.875,-1.721 -4.373,-1.721 -3.686,0 -5.922,2.801 -5.922,6.34 0,2.825 1.646,5.749 5.922,5.749 1.352,0 2.529,-0.297 3.879,-1.378 l 0,-3.044 -4.396,0 0,-2.899 7.371,0 0,7.249 c -1.695,1.94 -3.832,3.094 -6.854,3.094 -6.463,0 -9.092,-4.251 -9.092,-8.771 0,-4.84 3.02,-9.313 9.092,-9.313 2.309,0 4.619,0.885 6.389,2.629 l -2.016,2.065 z"
     id="path71"
     style="fill:#666f77;fill-opacity:1" /><path
     inkscape:connector-curvature="0"
     d="m 451.75784,64.877378 -3.857,0 -5.014,-5.749 -3.119,0 0,5.749 -3.242,0 0,-17.221 c 2.727,0 5.451,0.023 8.18,0.023 4.053,0.025 6.191,2.728 6.191,5.7 0,2.359 -1.08,4.742 -4.348,5.406 l 5.209,5.871 0,0.221 z m -11.99,-14.175 0,5.503 4.938,0 c 2.064,0 2.949,-1.376 2.949,-2.751 0,-1.375 -0.908,-2.752 -2.949,-2.752 l -4.938,0 z"
     id="path73"
     style="fill:#666f77;fill-opacity:1" /><path
     inkscape:connector-curvature="0"
     d="m 469.99484,56.377378 c -0.051,4.447 -2.781,8.897 -8.822,8.897 -6.043,0 -8.846,-4.353 -8.846,-8.874 0,-4.52 2.9,-9.064 8.846,-9.064 5.921,0 8.87,4.545 8.822,9.041 m -14.473,0.073 c 0.074,2.827 1.596,5.85 5.65,5.85 4.054,0 5.576,-3.048 5.627,-5.873 0.051,-2.898 -1.572,-6.143 -5.627,-6.143 -4.055,0 -5.724,3.269 -5.65,6.166"
     id="path75"
     style="fill:#666f77;fill-opacity:1" /><path
     inkscape:connector-curvature="0"
     d="m 483.48684,51.833378 c -0.59,-0.983 -2.211,-1.918 -4.078,-1.918 -2.408,0 -3.563,1.009 -3.563,2.287 0,1.498 1.77,1.915 3.832,2.161 3.588,0.442 6.93,1.376 6.93,5.479 0,3.832 -3.391,5.48 -7.225,5.48 -3.512,0 -6.215,-1.081 -7.496,-4.226 l 2.705,-1.402 c 0.76,1.894 2.752,2.729 4.842,2.729 2.039,0 3.955,-0.716 3.955,-2.581 0,-1.622 -1.695,-2.285 -3.98,-2.53 -3.516,-0.418 -6.756,-1.353 -6.756,-5.207 0,-3.539 3.488,-4.988 6.658,-5.014 2.674,0 5.451,0.762 6.756,3.416 l -2.58,1.326 z"
     id="path77"
     style="fill:#666f77;fill-opacity:1" /><path
     inkscape:connector-curvature="0"
     d="m 499.73284,51.833378 c -0.592,-0.983 -2.213,-1.918 -4.08,-1.918 -2.408,0 -3.563,1.009 -3.563,2.287 0,1.498 1.77,1.915 3.832,2.161 3.588,0.442 6.93,1.376 6.93,5.479 0,3.832 -3.391,5.48 -7.225,5.48 -3.512,0 -6.215,-1.081 -7.494,-4.226 l 2.703,-1.402 c 0.762,1.894 2.752,2.729 4.842,2.729 2.039,0 3.955,-0.716 3.955,-2.581 0,-1.622 -1.695,-2.285 -3.98,-2.53 -3.516,-0.418 -6.756,-1.353 -6.756,-5.207 0,-3.539 3.488,-4.988 6.658,-5.014 2.676,0 5.451,0.762 6.756,3.416 l -2.578,1.326 z"
     id="path79"
     style="fill:#666f77;fill-opacity:1" /><path
     inkscape:connector-curvature="0"
     d="m 522.26584,56.377378 c -0.051,4.447 -2.777,8.897 -8.822,8.897 -6.043,0 -8.842,-4.353 -8.842,-8.874 0,-4.52 2.898,-9.064 8.842,-9.064 5.924,0 8.871,4.545 8.822,9.041 m -14.471,0.073 c 0.074,2.827 1.596,5.85 5.648,5.85 4.055,0 5.576,-3.048 5.627,-5.873 0.051,-2.898 -1.572,-6.143 -5.627,-6.143 -4.052,0 -5.722,3.269 -5.648,6.166"
     id="path81"
     style="fill:#666f77;fill-opacity:1" /><rect
     x="201.61884"
     y="-0.46300134"
     width="124.056"
     height="116.926"
     id="rect83"
     style="fill:#666f77;fill-opacity:1" /><path
     inkscape:connector-curvature="0"
     d="m 255.66984,40.657998 0.143,-0.004 c -0.041,-0.009 -0.078,-0.016 -0.119,-0.025 0,0 -0.012,0.02 -0.024,0.029"
     id="path85"
     style="fill:#ffffff;fill-opacity:1" /><path
     inkscape:connector-curvature="0"
     d="m 291.96684,30.530998 c -12.371,-9.887 -18.582,-10.945 -21.711,-10.86 -3.127,0.085 -1.447,2.919 -1.447,2.919 2.045,3.43 0.154,3.743 0.154,3.743 -1.436,0.251 -2.715,-1.262 -3.342,-2.008 0,0 -1.088,-1.351 -0.508,-4.584 0,0 2.23,0.698 2.498,-0.218 0.305,-1.051 -1.234,-0.994 -1.234,-0.994 0,0 1.693,-0.182 1.842,-1.199 0.168,-1.147 0.469,-1.726 0.469,-1.726 -0.807,0.874 -2.504,1.563 -3.295,1.546 -0.791,-0.017 -0.119,-1.785 -0.119,-1.785 -0.52,0.286 -0.895,0.629 -1.105,0.87 -0.813,0.927 -1.211,0.822 -2.838,0.697 -1.174,-0.089 -1.74,0.872 -1.74,0.872 0,0 -0.846,-0.299 -1.479,-0.221 -1.545,0.189 -1.361,1.127 -1.361,1.127 0.313,-0.224 1.119,-0.37 1.584,-0.334 0.904,0.066 1.041,0.266 1.031,0.578 -0.018,0.586 -1.24,0.432 -1.24,0.432 0,0 0.096,0.154 0.641,0.307 0.586,0.16 1.594,-0.107 1.715,0.951 0.107,0.922 -0.127,2.834 -0.51,3.681 -0.172,0.381 -0.551,0.847 -1.039,1.239 l -0.006,0.004 c -0.08,0.064 -0.162,0.127 -0.248,0.186 -0.387,0.31 -1.301,1.367 -1.691,2.345 0.1,-0.627 0.32,-1.269 0.893,-1.912 -0.498,0.245 -0.748,0.238 -1.281,0.146 0,0 -1.891,-0.313 0.154,-3.743 0,0 1.68,-2.834 -1.447,-2.919 -3.129,-0.085 -9.34,0.974 -21.709,10.86 -2.447,1.901 -5.643,4.363 -3.273,4.506 0,0 1.098,0 2.885,-1.064 l 0.004,0.002 c 0.557,-0.561 4.881,-4.896 5.959,-5.056 0,0 -1.182,0.952 -5.029,5.113 1.188,0.138 4.99,0.397 9.164,-2.466 0,0 0.367,-0.236 1.648,-0.832 -0.207,0.149 -0.408,0.322 -0.604,0.521 l -0.934,0.949 1.313,-0.225 c 0.322,-0.054 0.592,-0.086 0.838,-0.096 l 0.428,0.566 0.195,1.584 c 0.084,0.365 0.182,0.787 0.338,1.188 0.617,1.6 3.418,5.51 5.813,5.51 0.174,0 0.326,-0.002 0.461,-0.006 l 2.277,-0.055 c -0.279,-0.05 -0.631,-0.156 -1.02,-0.37 -1.541,-0.843 0,0 -1.719,0 -1.793,0 -4.063,-2.702 -5.049,-4.479 l -0.008,-0.015 c -0.066,-0.123 -0.127,-0.236 -0.18,-0.349 -0.006,-0.015 -0.016,-0.03 -0.025,-0.047 -0.057,-0.121 -0.107,-0.237 -0.15,-0.343 -0.141,-0.363 -0.234,-0.751 -0.318,-1.129 0.66,0.701 2.504,1.791 2.703,0.123 0.139,-1.166 -1.646,-2.281 -2.652,-2.51 -0.695,-0.159 -1.313,-0.116 -2.006,0.004 2.16,-2.197 4.826,-0.906 7,1.73 0.941,1.143 3.564,0.996 2.863,-0.976 -0.391,-1.099 -1.516,-1.912 -2.605,-2.084 -0.02,0 -0.047,-0.002 -0.068,-0.003 0.014,-0.008 0.027,-0.008 0.041,0 2.814,0.145 5.08,0.281 6.719,2.775 -0.023,-0.482 -0.102,-0.958 -0.23,-1.404 -0.508,-1.753 -0.375,-3.781 1.932,-4.133 -0.961,0.655 -0.072,1.966 0.842,1.118 0.512,-0.474 0.666,-0.763 0.5,-1.372 -0.123,-0.442 -0.188,-1.107 -0.533,-1.432 1.592,0.811 2.24,2.408 1.127,3.986 -0.219,0.309 -0.789,0.744 -0.645,1.184 0.152,0.459 0.617,0.417 0.973,0.172 0.482,-0.328 0.969,-1.063 0.799,-1.549 0.615,0.734 0.457,1.72 0.262,2.635 1.297,-0.911 2.824,-1.57 4.457,-1.787 0.889,-0.118 1.914,-0.186 2.805,-0.059 0.541,0.076 1.342,0.181 1.811,0.467 -1.822,0.37 -1.707,1.391 -1.734,1.809 2.75,0.72 4.158,-1.176 4.873,-2.524 0.906,1.747 0.377,3.123 -0.877,4.222 2.588,-2.242 5.842,-1.249 6.807,0.486 -1.377,-0.264 -2.74,0.25 -3.65,1.242 -0.781,0.849 -2.686,3.349 -4.209,4.051 -0.047,0.022 -0.096,0.041 -0.145,0.063 -0.072,0.027 -0.145,0.052 -0.217,0.074 -0.025,0.005 -0.049,0.01 -0.07,0.016 -0.09,0.02 -0.178,0.035 -0.264,0.036 -0.105,0.002 -0.201,0.005 -0.291,0.009 -0.029,0 -0.053,0.002 -0.078,0.002 -0.064,0.004 -0.127,0.006 -0.184,0.012 -0.01,0 -0.021,0 -0.021,0 -0.256,0.01 -0.404,0.02 -0.518,0.02 l -0.023,-0.002 c -0.027,0 -0.043,0 -0.057,-0.002 l -0.035,-0.004 -0.025,-0.004 c -0.023,-0.003 -0.037,-0.007 -0.051,-0.012 0,0 -0.016,-0.004 -0.025,-0.006 -0.02,-0.008 -0.039,-0.014 -0.061,-0.023 -0.006,-0.002 -0.016,-0.006 -0.016,-0.006 -0.023,-0.01 -0.043,-0.02 -0.063,-0.03 -0.008,-0.002 -0.012,-0.003 -0.012,-0.003 -0.086,-0.046 -0.188,-0.102 -0.34,-0.182 -0.174,-0.088 -0.412,-0.202 -0.766,-0.355 -1.049,-0.454 -3.061,0.538 -4.055,-0.004 l -5.58,0.1 c -0.479,0.334 -0.965,0.582 -1.469,0.757 l 0.607,-0.017 c 0.264,0.04 0.555,-0.012 0.998,-0.314 l 5.35,-0.096 c 0.248,0.112 0.545,0.165 0.902,0.165 0.428,0 0.889,-0.074 1.336,-0.148 0.293,-0.047 0.592,-0.094 0.867,-0.119 l 0.662,0.013 c 0.078,0.013 0.152,0.031 0.211,0.058 0.51,0.223 0.777,0.361 0.953,0.458 0.25,0.131 0.387,0.205 0.705,0.205 0.088,0 0.199,-0.005 0.35,-0.012 0.174,-0.008 0.408,-0.021 0.74,-0.027 0.475,-0.014 0.984,-0.24 1.512,-0.605 l 1.219,0.021 0.383,-1.436 c 0.504,-0.523 1.014,-1.109 1.516,-1.697 0.229,-0.268 0.424,-0.498 0.578,-0.662 0.834,-0.91 2.078,-1.336 3.252,-1.11 l 0.521,0.1 0.752,0.366 c 1.008,-2.008 -0.742,-3.504 -1.576,-4.105 -0.586,-0.391 -0.893,-0.911 -0.893,-0.911 1.355,0.627 1.738,0.874 1.738,0.874 l 0.002,0.002 c 0.012,-0.002 0.023,-0.002 0.023,-0.002 4.227,2.901 8.092,2.596 9.209,2.461 -3.842,-4.156 -5.021,-5.108 -5.021,-5.108 1.146,0.17 6,5.099 6.016,5.116 1.723,1.002 2.775,1.002 2.775,1.002 2.37,-0.142 -0.825,-2.604 -3.271,-4.506 m -30.041,-12.436 c -0.154,0.083 -0.369,0.127 -0.66,0.125 -0.016,0.155 -0.145,0.276 -0.305,0.276 -0.16,0 -0.293,-0.125 -0.303,-0.283 -0.029,0.002 -0.057,0.005 -0.078,0.012 -0.086,0.021 -0.135,0.059 -0.166,0.082 -0.027,0.02 -0.051,0.036 -0.084,0.036 l -0.023,-0.004 c -0.021,0 -0.053,-0.026 -0.061,-0.065 -0.012,-0.072 0.051,-0.221 0.229,-0.309 0.111,-0.063 0.273,-0.094 0.492,-0.094 0.08,0 0.166,0.004 0.246,0.009 0.041,0.003 0.088,0.003 0.131,0.003 0.213,0 0.371,-0.016 0.479,-0.047 0.09,-0.025 0.131,-0.063 0.16,-0.088 0.02,-0.018 0.043,-0.04 0.08,-0.04 0.039,0 0.074,0.029 0.082,0.069 0.02,0.081 -0.047,0.237 -0.219,0.318"
     id="path87"
     style="fill:#ffffff;fill-opacity:1" /><path
     inkscape:connector-curvature="0"
     d="m 255.60984,40.610998 c -0.063,-0.019 -0.127,-0.035 -0.193,-0.049 0.072,0.035 0.134,0.047 0.193,0.049"
     id="path89"
     style="fill:#ffffff;fill-opacity:1" /><path
     inkscape:connector-curvature="0"
     d="m 254.69584,39.982998 -0.215,0.084 c 0.201,0.096 0.455,0.232 0.791,0.418 -0.193,-0.149 -0.404,-0.449 -0.576,-0.502"
     id="path91"
     style="fill:#ffffff;fill-opacity:1" /><path
     inkscape:connector-curvature="0"
     d="m 255.27184,40.482998 c 0.049,0.04 0.1,0.068 0.146,0.08 l -0.082,-0.044 c -0.025,-0.013 -0.043,-0.022 -0.064,-0.036"
     id="path93"
     style="fill:#ffffff;fill-opacity:1" /><path
     inkscape:connector-curvature="0"
     d="m 258.64884,40.301998 -1.6,0 c -0.055,0.023 -0.92,0 -0.986,0 -0.051,0 -0.162,0.321 -0.455,0.31 0.145,0.037 0.279,0.077 0.395,0.126 1.063,0.142 2.15,-0.017 3.199,-0.432 -0.16,-0.021 -0.34,-0.028 -0.553,-0.004"
     id="path95"
     style="fill:#ffffff;fill-opacity:1" /><path
     inkscape:connector-curvature="0"
     d="m 262.60184,92.020998 0,0 -0.17,0 c -1.344,0 -4.141,0 -7.266,-1.295 -3.762,-1.554 -6.902,-4.507 -9.34,-8.772 -0.32,-0.47 -2.385,-3.843 -2.385,-11.823 l 0.004,-25.464 c 0.041,-0.462 0,-1.281 -0.209,-1.641 l 0.293,-1.262 5.061,-3.399 0.34,-0.251 c 0.459,0.459 0.744,0.565 0.744,0.565 0,0 0.787,0.561 3.26,0.561 l 19.158,0 c 2.473,0 3.529,-0.634 3.535,-0.64 0,0 0.498,-0.278 0.77,-0.569 l 0.037,0.334 5.061,3.399 0.291,1.262 c -0.207,0.359 -0.246,1.179 -0.205,1.643 l 0.002,0.082 0,25.38 c 0,7.98 -2.064,11.354 -2.383,11.823 -5.752,10.067 -13.631,10.067 -16.598,10.067 m -17.264,-47.234 0,25.343 c 0,7.746 2.041,10.739 2.061,10.768 l 0.055,0.083 c 5.209,9.142 12.307,9.142 14.979,9.142 l 0.17,0 c 2.918,0 9.762,0 14.969,-9.142 l 0.059,-0.086 c 0.016,-0.025 2.057,-3.019 2.057,-10.765 l 0,-25.343 c -0.02,-0.267 -0.061,-1.076 0.135,-1.865 l -3.785,-2.544 c -0.666,0.419 -1.85,0.757 -3.943,0.757 l -19.158,0 c -2.096,0 -3.277,-0.338 -3.945,-0.757 l -3.783,2.544 c 0.19,0.789 0.149,1.599 0.129,1.865"
     id="path97"
     style="fill:#ffffff;fill-opacity:1" /><path
     inkscape:connector-curvature="0"
     d="m 247.68784,78.461998 c -0.152,0 -0.303,-0.073 -0.398,-0.207 -0.16,-0.22 -0.111,-0.527 0.109,-0.687 0.049,-0.032 4.857,-3.521 6.85,-5.476 6.023,-5.921 9.256,-3.698 10.104,-2.878 0.111,0.091 0.383,0.217 0.74,-0.138 0.496,-0.495 0.984,-0.687 1.449,-0.567 0.471,0.12 0.811,0.524 1.018,1.208 0.283,0.95 0.879,2.295 2.736,3.025 2.057,0.81 3.51,2.779 3.707,3.062 0.164,0.174 1.629,1.641 3.729,1.529 0.271,-0.015 0.502,0.191 0.518,0.466 0.016,0.268 -0.191,0.503 -0.463,0.517 -2.705,0.148 -4.463,-1.796 -4.535,-1.876 -0.014,-0.018 -0.025,-0.032 -0.037,-0.047 -0.014,-0.018 -1.393,-1.991 -3.279,-2.736 -1.693,-0.665 -2.779,-1.861 -3.318,-3.654 -0.115,-0.394 -0.258,-0.527 -0.314,-0.538 -0.057,-0.019 -0.236,0.032 -0.516,0.311 -0.789,0.788 -1.689,0.527 -2.102,0.162 -2.799,-2.711 -7.775,1.905 -8.746,2.856 -2.043,2.01 -6.764,5.426 -6.961,5.57 -0.088,0.065 -0.191,0.098 -0.291,0.098"
     id="path99"
     style="fill:#ffffff;fill-opacity:1" /><path
     inkscape:connector-curvature="0"
     d="m 279.61984,79.530998 c -0.063,0 -0.123,-0.007 -0.186,-0.021 -18.58,-3.647 -33.184,-0.047 -33.33,-0.011 -0.508,0.126 -1.021,-0.178 -1.15,-0.687 -0.131,-0.507 0.178,-1.02 0.686,-1.149 0.148,-0.04 15.141,-3.749 34.16,-0.012 0.516,0.098 0.85,0.601 0.748,1.113 -0.09,0.453 -0.485,0.767 -0.928,0.767"
     id="path101"
     style="fill:#ffffff;fill-opacity:1" /><path
     inkscape:connector-curvature="0"
     d="m 254.79284,55.044998 3.598,-9.224 c 0.445,0.017 0.814,-0.134 0.93,-0.432 0.055,-0.136 0.041,-0.286 -0.014,-0.436 l 0.006,0.002 -0.555,-1.897 -1.725,1.043 c -0.021,0.01 -0.043,0.025 -0.063,0.037 l -0.01,0.006 0.004,0.002 c -0.09,0.066 -0.16,0.148 -0.201,0.247 -0.115,0.298 0.055,0.659 0.395,0.945 l -0.297,0.761 c 0,0 -0.264,0.568 -1.766,-0.018 -1.502,-0.586 -1.176,-1.943 -1.176,-1.943 0,0 -5.619,1.287 -2.705,6.938 0,0 0.68,-1.223 2.182,-0.639 1.504,0.588 1.291,1.242 1.291,1.242 l -1.283,3.27"
     id="path103"
     style="fill:#ffffff;fill-opacity:1" /><path
     inkscape:connector-curvature="0"
     d="m 251.98284,58.661998 -2.713,6.928 c -0.135,0.336 0.035,0.723 0.373,0.856 0.34,0.13 0.725,-0.04 0.855,-0.38 l 2.643,-6.776"
     id="path105"
     style="fill:#ffffff;fill-opacity:1" /><path
     inkscape:connector-curvature="0"
     d="m 258.65484,46.384998 -3.068,7.912 14.783,0 2.289,-7.912 -14.004,0 z m 7.922,5.809 -1.625,-0.952 0.262,1.961 -3.705,0 1.643,-1.961 -2.297,0.952 1.307,-3.705 1.627,0.95 -0.264,-1.959 3.705,0 -1.643,1.959 2.297,-0.95 -1.307,3.705 z"
     id="path107"
     style="fill:#ffffff;fill-opacity:1" /><path
     inkscape:connector-curvature="0"
     d="m 271.89884,61.088998 4.25,-1.888 -2.998,-5.043 -4.107,3.167 c 0.349,0.628 1.607,2.795 2.855,3.764"
     id="path109"
     style="fill:#ffffff;fill-opacity:1" /><path
     inkscape:connector-curvature="0"
     d="m 253.46684,58.879998 c 0.008,0.032 0.225,0.754 1.707,0.531 l 1.35,-1.245 c -0.172,-0.301 -0.494,-0.922 -0.641,-1.561 -0.227,-0.986 -0.496,-1.322 -1.074,-1.337 -0.236,-0.007 -0.486,-0.025 -0.734,-0.042 -0.506,-0.033 -1.195,-0.081 -1.365,0.042 -0.172,0.126 -0.207,0.195 -0.211,0.208 0,0 0.021,0.029 0.076,0.068 0.088,0.062 0.504,0.15 0.777,0.21 0.689,0.146 1.057,0.235 1.188,0.461 0.047,0.083 0.059,0.179 0.029,0.271 l -0.014,0.045 c -0.107,0.32 -0.43,1.295 0.32,2.298 l -0.412,0.309 c -0.117,-0.157 -0.211,-0.311 -0.289,-0.464 -0.254,0.085 -0.492,0.145 -0.709,0.183 0,0 -0.002,0.013 -0.002,0.024 l 0.004,-10e-4 z"
     id="path111"
     style="fill:#ffffff;fill-opacity:1" /><path
     inkscape:connector-curvature="0"
     d="m 263.81884,62.393998 c 0.818,-0.317 3.459,-1.445 5.537,-3.548 -0.324,-0.501 -0.578,-0.94 -0.725,-1.202 l -1.281,0.987 c -0.303,0.203 -2.342,1.555 -3.83,2.22 0.014,0.148 0.084,0.773 0.299,1.543"
     id="path113"
     style="fill:#ffffff;fill-opacity:1" /><path
     inkscape:connector-curvature="0"
     d="m 265.08584,65.596998 c -1.582,-1.345 -1.98,-3.82 -2.064,-4.544 -0.213,0.076 -0.404,0.131 -0.564,0.155 -0.074,0.362 -0.178,0.716 -0.297,1.056 -0.438,1.472 -1.225,2.563 -1.791,3.199 0.357,0.286 1.211,0.846 2.385,0.846 0.769,0 1.55,-0.243 2.331,-0.712"
     id="path115"
     style="fill:#ffffff;fill-opacity:1" /><path
     inkscape:connector-curvature="0"
     d="m 269.64884,59.283998 c -2.186,2.174 -4.861,3.298 -5.676,3.605 0.299,0.863 0.785,1.804 1.566,2.41 0.014,-0.007 0.025,-0.014 0.037,-0.024 2.672,-1.941 5.01,-3.409 5.838,-3.915 -0.644,-0.545 -1.263,-1.34 -1.765,-2.076"
     id="path117"
     style="fill:#ffffff;fill-opacity:1" /><path
     inkscape:connector-curvature="0"
     d="m 259.53184,65.585998 c 0.078,-0.072 0.188,-0.181 0.309,-0.314 0.203,-0.238 1.248,-1.544 1.832,-3.185 0.125,-0.42 0.219,-0.871 0.264,-1.352 -0.771,-0.142 -3.223,-0.69 -5.07,-2.181 l -1.273,1.173 c 0.276,0.744 1.594,4.019 3.938,5.859"
     id="path119"
     style="fill:#ffffff;fill-opacity:1" /><path
     inkscape:connector-curvature="0"
     d="m 253.92584,57.955998 c -0.018,-0.083 -0.029,-0.165 -0.037,-0.242 -0.129,0.038 -0.291,0.054 -0.473,0.054 -0.549,0 -1.258,-0.158 -1.645,-0.385 -0.004,0.119 0.014,0.254 0.098,0.338 0.432,0.447 1.53,0.356 2.057,0.235"
     id="path121"
     style="fill:#ffffff;fill-opacity:1" /><path
     inkscape:connector-curvature="0"
     d="m 252.29684,58.444998 c 0.234,0.17 0.732,0.295 1.762,-0.035 -0.023,-0.061 -0.045,-0.117 -0.061,-0.178 -0.227,0.053 -0.592,0.108 -0.979,0.108 -0.318,0 -0.65,-0.038 -0.934,-0.147 0.044,0.084 0.109,0.177 0.212,0.252"
     id="path123"
     style="fill:#ffffff;fill-opacity:1" /><path
     inkscape:connector-curvature="0"
     d="m 252.27784,55.964998 c -0.07,-0.051 -0.125,-0.107 -0.17,-0.161 -0.063,0.02 -0.119,0.049 -0.156,0.098 -0.047,0.065 -0.051,0.161 -0.012,0.287 0.105,0.338 1.396,0.626 1.994,0.661 0.031,-0.156 0.068,-0.291 0.102,-0.391 -0.176,-0.07 -0.549,-0.149 -0.791,-0.2 -0.493,-0.107 -0.801,-0.177 -0.967,-0.294"
     id="path125"
     style="fill:#ffffff;fill-opacity:1" /><path
     inkscape:connector-curvature="0"
     d="m 253.87184,57.413998 0.004,0.007 c 0,-0.101 0.006,-0.198 0.016,-0.289 -0.486,-0.038 -1.635,-0.226 -2.07,-0.632 -0.078,0.175 -0.146,0.408 -0.041,0.538 0.264,0.321 1.712,0.582 2.091,0.376"
     id="path127"
     style="fill:#ffffff;fill-opacity:1" /><path
     inkscape:connector-curvature="0"
     d="m 246.71084,95.508998 -1.318,1.572 c 0.92,0.44 1.461,0.657 1.461,0.657 l 0.832,-1.836 c -0.35,-0.133 -0.674,-0.267 -0.975,-0.393"
     id="path129"
     style="fill:#ffffff;fill-opacity:1" /><path
     inkscape:connector-curvature="0"
     d="m 244.51184,94.510998 c -0.045,-0.025 -0.08,-0.065 -0.096,-0.115 -0.014,-0.051 -0.006,-0.105 0.018,-0.148 l 1.479,-2.581 -4.033,3.517 c 1.242,0.738 2.324,1.313 3.16,1.725 l 1.305,-1.555 c -1.137,-0.489 -1.809,-0.832 -1.833,-0.843"
     id="path131"
     style="fill:#ffffff;fill-opacity:1" /><path
     inkscape:connector-curvature="0"
     d="m 244.51184,94.510998 c -0.045,-0.025 -0.08,-0.065 -0.096,-0.115 -0.014,-0.051 -0.006,-0.105 0.018,-0.148 l 1.479,-2.581 -6.121,5.335 -0.727,3.586002 3.695,-0.965002 3.584,-4.27 c -1.136,-0.488 -1.808,-0.831 -1.832,-0.842"
     id="path133"
     style="fill:#ffffff;fill-opacity:1" /><path
     inkscape:connector-curvature="0"
     d="m 285.49684,97.000998 -6.121,-5.335 1.479,2.577 c 0.023,0.047 0.029,0.102 0.018,0.148 -0.016,0.051 -0.051,0.094 -0.094,0.119 -0.023,0.011 -0.689,0.357 -1.826,0.85 l 3.574,4.262 3.697,0.965002 -0.727,-3.586002 z"
     id="path135"
     style="fill:#ffffff;fill-opacity:1" /><path
     inkscape:connector-curvature="0"
     d="m 277.78584,95.848998 0.746,1.645 c 0.221,-0.095 0.648,-0.286 1.234,-0.568 l -1.182,-1.405 c -0.246,0.103 -0.513,0.212 -0.798,0.328"
     id="path137"
     style="fill:#ffffff;fill-opacity:1" /><path
     inkscape:connector-curvature="0"
     d="m 250.15484,87.967998 -1.328,1.157 c 0.482,0.257 1.143,0.582 1.959,0.933 l 0.814,-0.969 -1.445,-1.121 z"
     id="path139"
     style="fill:#ffffff;fill-opacity:1" /><path
     inkscape:connector-curvature="0"
     d="m 275.04684,87.892998 -1.43,1.113 0.895,1.063 c 0.818,-0.351 1.477,-0.68 1.955,-0.937 l -1.42,-1.239 z"
     id="path141"
     style="fill:#ffffff;fill-opacity:1" /><path
     inkscape:connector-curvature="0"
     d="m 233.11384,81.884998 -0.588,-0.712 -0.791,0.654 0.586,0.712 c 0.248,0.296 0.549,0.257 0.746,0.094 0.199,-0.163 0.289,-0.455 0.047,-0.748"
     id="path143"
     style="fill:#ffffff;fill-opacity:1" /><path
     inkscape:connector-curvature="0"
     d="m 229.81284,72.815998 -4.533,5.498 c 4.367,8.346 11.412,13.725 16.258,16.663 l 4.957,-4.323 0.436,-0.759 c -10.776,-5.122 -17.118,-17.079 -17.118,-17.079 m -1.725,6.824 1.891,-2.932 0.387,0.557 -1.502,2.22 2.605,-0.625 0.387,0.557 -3.408,0.741 -0.36,-0.518 z m 1.346,1.858 2.553,-1.941 0.363,0.478 -2.553,1.94 -0.363,-0.477 z m 2.508,3.062 -0.029,0.025 -0.459,-0.557 0.23,-1.406 -0.371,-0.448 -0.826,0.687 -0.389,-0.47 2.48,-2.046 c 0.326,0.391 0.645,0.784 0.969,1.179 0.479,0.589 0.344,1.214 -0.082,1.568 -0.34,0.282 -0.813,0.408 -1.297,0.019 l -0.226,1.449 z m 0.779,0.9 1.949,-1.812 -0.695,-0.744 0.404,-0.376 c 0.629,0.676 1.164,1.25 1.797,1.93 l -0.402,0.376 -0.691,-0.744 -1.947,1.814 -0.415,-0.444 z m 2.414,2.548 c -0.561,-0.527 -0.717,-1.319 -0.053,-2.021 l 1.262,-1.338 0.438,0.412 -1.262,1.338 c -0.398,0.419 -0.367,0.871 -0.004,1.211 0.363,0.344 0.799,0.296 1.178,-0.104 l 1.26,-1.338 0.438,0.412 -1.264,1.337 c -0.649,0.691 -1.407,0.644 -1.993,0.091 m 2.141,1.808 1.682,-2.061 -0.789,-0.644 0.348,-0.427 c 0.719,0.59 1.326,1.085 2.045,1.674 l -0.348,0.423 -0.789,-0.644 -1.68,2.061 -0.469,-0.382 z m 5.012,0.484 -1.471,-1.038 -0.426,0.601 1.42,1.001 -0.324,0.463 -1.42,-1.001 -0.418,0.593 1.473,1.037 -0.344,0.488 -1.963,-1.385 c 0.615,-0.871 1.234,-1.749 1.848,-2.624 l 1.963,1.384 -0.338,0.481 z"
     id="path145"
     style="fill:#ffffff;fill-opacity:1" /><path
     inkscape:connector-curvature="0"
     d="m 251.61384,92.916998 -0.848,-0.326 -0.406,1.063 0.848,0.325 c 0.722,0.279 1.125,-0.788 0.406,-1.062"
     id="path147"
     style="fill:#ffffff;fill-opacity:1" /><path
     inkscape:connector-curvature="0"
     d="m 262.58984,94.817998 c -0.758,-0.008 -1.068,0.596 -1.064,1.139 0.004,0.523 0.348,1.091 1.043,1.099 0.727,0.007 1.078,-0.601 1.061,-1.149 -0.018,-0.521 -0.282,-1.082 -1.04,-1.089"
     id="path149"
     style="fill:#ffffff;fill-opacity:1" /><polygon
     points="290.117,113.759 289.283,112.527 288.945,113.976 "
     id="polygon151"
     style="fill:#ffffff;fill-opacity:1"
     transform="translate(-20.187159,-18.059002)" /><path
     inkscape:connector-curvature="0"
     d="m 277.42184,89.026998 c -1.051,0.636 -6.793,3.882 -14.777,3.882 -7.885,0 -13.719,-3.253 -14.777,-3.882 l -3,5.234 c 1.297,0.632 9.439,4.453 17.777,4.453 8.49,0 16.498,-3.817 17.777,-4.453 l -3,-5.234 z m -26.414,5.469 -0.848,-0.325 -0.34,0.882 -0.564,-0.217 1.15,-2.996 c 0.469,0.181 0.943,0.357 1.412,0.538 1.466,0.561 0.657,2.683 -0.81,2.118 m 3.366,2.05 -2.168,-0.614 0.873,-3.087 0.582,0.162 -0.723,2.552 1.59,0.448 -0.154,0.539 z m 1.636,0.412 c -0.756,-0.148 -1.309,-0.73 -1.123,-1.681 l 0.352,-1.804 0.59,0.111 -0.352,1.808 c -0.113,0.564 0.152,0.929 0.643,1.026 0.49,0.095 0.834,-0.177 0.939,-0.716 l 0.354,-1.807 0.59,0.115 -0.354,1.804 c -0.182,0.934 -0.848,1.299 -1.639,1.144 m 3.461,-1.536 c 0.656,0.147 1.26,0.387 1.184,1.146 -0.072,0.712 -0.734,0.954 -1.447,0.882 -0.652,-0.064 -1.135,-0.317 -1.311,-0.925 l 0.529,-0.21 c 0.104,0.365 0.459,0.561 0.848,0.597 0.377,0.039 0.748,-0.055 0.781,-0.401 0.033,-0.304 -0.27,-0.459 -0.689,-0.546 -0.645,-0.145 -1.23,-0.38 -1.156,-1.096 0.066,-0.657 0.742,-0.86 1.33,-0.806 0.498,0.051 0.998,0.246 1.191,0.763 l -0.506,0.199 c -0.09,-0.195 -0.371,-0.398 -0.721,-0.438 -0.445,-0.044 -0.682,0.123 -0.705,0.357 -0.027,0.283 0.293,0.391 0.672,0.478 m 4.395,2.352 -0.387,-0.39 c -0.246,0.155 -0.553,0.234 -0.914,0.231 -1.143,-0.012 -1.641,-0.847 -1.637,-1.678 0.002,-0.842 0.537,-1.674 1.666,-1.666 1.129,0.011 1.625,0.831 1.631,1.659 0,0.364 -0.098,0.744 -0.307,1.041 l 0.377,0.379 -0.429,0.424 z m 2.269,-0.281 c -0.77,0.068 -1.463,-0.34 -1.547,-1.306 l -0.166,-1.829 0.602,-0.05 0.162,1.829 c 0.049,0.574 0.406,0.849 0.904,0.806 0.498,-0.043 0.75,-0.401 0.701,-0.95 l -0.164,-1.829 0.6,-0.055 0.162,1.829 c 0.084,0.948 -0.451,1.483 -1.254,1.555 m 4.51,-0.737 -0.373,-0.546 -1.65,0.307 -0.16,0.647 -0.645,0.115 0.834,-3.416 0.648,-0.119 1.996,2.892 -0.65,0.12 z m 3.611,-0.955 -0.648,-2.237 -0.615,1.631 -0.115,0.032 -1.367,-1.06 0.648,2.241 -0.582,0.17 -0.893,-3.083 0.668,-0.195 1.35,1.048 0.58,-1.604 0.662,-0.191 0.895,3.083 -0.583,0.165 z"
     id="path153"
     style="fill:#ffffff;fill-opacity:1" /><path
     inkscape:connector-curvature="0"
     d="m 292.13084,81.399998 c -0.498,0.567 -0.244,1.203 0.172,1.551 0.406,0.336 1.02,0.491 1.514,-0.076 0.498,-0.571 0.256,-1.157 -0.133,-1.511 -0.402,-0.361 -1.055,-0.535 -1.553,0.036"
     id="path155"
     style="fill:#ffffff;fill-opacity:1" /><polygon
     points="305.676,105.886 306.035,107.333 306.98,106.606 "
     id="polygon157"
     style="fill:#ffffff;fill-opacity:1"
     transform="translate(-20.187159,-18.059002)" /><path
     inkscape:connector-curvature="0"
     d="m 290.22484,83.539998 -0.656,0.647 0.725,0.733 0.654,-0.65 c 0.273,-0.271 0.211,-0.567 0.029,-0.752 -0.18,-0.184 -0.482,-0.245 -0.752,0.022"
     id="path159"
     style="fill:#ffffff;fill-opacity:1" /><path
     inkscape:connector-curvature="0"
     d="m 295.50584,73.154998 c -0.994,1.76 -7.297,12.358 -17.27,17.011 l 5.354,4.67 c 4.814,-2.917 11.844,-8.267 16.188,-16.501 l -4.272,-5.18 z m -7.593,16.006 -0.582,-0.314 -1.332,1.022 0.152,0.647 -0.521,0.397 -0.813,-3.42 0.523,-0.404 3.096,1.67 -0.523,0.402 z m 1.65,-1.298 c -0.58,0.503 -1.381,0.582 -2.016,-0.148 l -1.207,-1.384 0.453,-0.395 1.203,1.385 c 0.381,0.434 0.832,0.448 1.209,0.123 0.377,-0.329 0.371,-0.767 0.01,-1.183 l -1.205,-1.384 0.453,-0.395 1.205,1.385 c 0.624,0.717 0.504,1.465 -0.105,1.996 m 2.947,-2.859 -1.418,-0.104 -0.416,0.408 0.756,0.763 -0.434,0.427 -2.26,-2.288 c 0.363,-0.358 0.727,-0.712 1.09,-1.07 0.541,-0.531 1.18,-0.448 1.57,-0.054 0.311,0.311 0.479,0.77 0.131,1.286 l 1.463,0.098 0.031,0.029 -0.513,0.505 z m 1.725,-1.764 c -0.742,0.846 -1.697,0.708 -2.33,0.151 -0.635,-0.557 -0.918,-1.518 -0.188,-2.353 0.727,-0.835 1.727,-0.69 2.352,-0.131 0.617,0.555 0.908,1.484 0.166,2.333"
     id="path161"
     style="fill:#ffffff;fill-opacity:1" /><path
     inkscape:connector-curvature="0"
     d="m 280.80484,75.753998 0,0 c 1.859,-0.242 4.344,-2.067 8.484,-5.487 3.984,-3.289 4.191,-13.729 3.182,-18.17 -1.039,-4.571 -1.82,-9.417 -1.83,-9.465 l 0.373,-0.076 c 0.342,1.376 2.893,9.218 2.922,9.31 1.525,6.248 0.391,13.096 0.074,14.743 0.619,-0.264 1.264,-0.4 1.939,-0.545 0.496,-0.105 1.006,-0.214 1.527,-0.38 1.133,-0.358 2.621,-0.918 4.096,-2.09 1.188,-0.946 2.68,-1.854 2.695,-1.861 l 1.012,-0.614 -0.77,0.9 c -3.338,3.896 -6.027,4.861 -7.756,5.244 -1.588,0.351 -4.146,2.628 -9.246,7.161 l -0.701,0.625 c -4.393,3.904 -7.076,4.1 -6.742,2.704 0.172,-0.72 0.787,-1.081 0.787,-1.081 l 0.135,-0.26 -0.181,-0.658 z"
     id="path163"
     style="fill:#ffffff;fill-opacity:1" /><path
     inkscape:connector-curvature="0"
     d="m 292.58584,75.262998 c -0.129,-0.329 -0.416,-0.846 -0.992,-1.074 l -0.006,-0.003 c -0.307,-0.12 -0.602,-0.112 -0.82,-0.072 0.096,-0.351 0.121,-0.803 -0.096,-1.183 0.523,-0.285 1.178,-0.264 1.672,0.116 0.676,0.517 0.793,1.5 0.262,2.19 -0.006,0.011 -0.014,0.018 -0.02,0.026"
     id="path165"
     style="fill:#ffffff;fill-opacity:1" /><path
     inkscape:connector-curvature="0"
     d="m 290.50184,74.578998 0.045,-0.021 c 0.004,-0.004 0.449,-0.21 0.908,-0.029 l 0.002,0 c 0.607,0.239 0.834,0.694 0.857,1.074 -0.037,0.347 -0.182,0.715 -0.434,1.041 -0.6,0.788 -1.586,1.044 -2.199,0.574 -0.375,-0.285 -0.523,-0.773 -0.449,-1.287 0.12,-0.448 0.665,-1.07 1.27,-1.352"
     id="path167"
     style="fill:#ffffff;fill-opacity:1" /><path
     inkscape:connector-curvature="0"
     d="m 288.19184,73.363998 c 0.514,-0.668 1.396,-0.856 2.008,-0.448 0.469,0.441 0.217,1.143 0.129,1.342 -0.676,0.329 -1.219,1.167 -1.395,1.46 -0.213,-0.032 -0.412,-0.112 -0.59,-0.246 -0.615,-0.47 -0.683,-1.413 -0.152,-2.108"
     id="path169"
     style="fill:#ffffff;fill-opacity:1" /><path
     inkscape:connector-curvature="0"
     d="m 289.24484,50.868998 c 0.082,-0.207 0.26,-0.529 0.623,-0.674 l 0.002,0 c 0.193,-0.076 0.377,-0.07 0.518,-0.047 -0.063,-0.221 -0.076,-0.502 0.059,-0.743 -0.33,-0.179 -0.738,-0.164 -1.049,0.074 -0.424,0.323 -0.498,0.94 -0.166,1.374 0.003,0.005 0.009,0.009 0.013,0.016"
     id="path171"
     style="fill:#ffffff;fill-opacity:1" /><path
     inkscape:connector-curvature="0"
     d="m 290.55284,50.440998 -0.029,-0.015 c 0,0 -0.279,-0.132 -0.568,-0.021 l -0.004,0.004 c -0.381,0.148 -0.523,0.434 -0.537,0.671 0.023,0.22 0.115,0.45 0.273,0.655 0.377,0.494 0.994,0.654 1.381,0.358 0.232,-0.177 0.326,-0.484 0.279,-0.806 -0.074,-0.28 -0.416,-0.669 -0.795,-0.846"
     id="path173"
     style="fill:#ffffff;fill-opacity:1" /><path
     inkscape:connector-curvature="0"
     d="m 292.00184,49.679998 c -0.324,-0.42 -0.877,-0.538 -1.262,-0.281 -0.295,0.274 -0.133,0.716 -0.08,0.84 0.426,0.205 0.768,0.732 0.875,0.918 0.133,-0.021 0.262,-0.07 0.371,-0.154 0.386,-0.296 0.428,-0.889 0.096,-1.323"
     id="path175"
     style="fill:#ffffff;fill-opacity:1" /><path
     inkscape:connector-curvature="0"
     d="m 291.38084,38.440998 c 1.059,-0.707 1.402,-1.61 1.402,-1.61 0,0 -0.109,0.961 0.506,2.076 0.76,1.374 0.732,2.896 -0.545,3.822 0,0 -0.809,0.539 -1.49,0.375 -0.678,-0.166 -1.15,-1.016 -1.15,-1.016 -0.707,-1.414 -0.027,-2.774 1.277,-3.647"
     id="path177"
     style="fill:#ffffff;fill-opacity:1" /><path
     inkscape:connector-curvature="0"
     d="m 296.15484,42.689998 c 1.869,-0.438 2.834,-1.531 2.834,-1.531 0,0 -0.662,1.298 -0.383,3.201 0.344,2.341 -0.496,4.479 -2.793,5.111 0,0 -1.426,0.33 -2.303,-0.264 -0.873,-0.595 -1.088,-2.045 -1.088,-2.045 -0.254,-2.369 1.426,-3.931 3.733,-4.472"
     id="path179"
     style="fill:#ffffff;fill-opacity:1" /><path
     inkscape:connector-curvature="0"
     d="m 298.56084,50.583998 c 1.613,0.153 2.676,-0.457 2.676,-0.457 0,0 -0.877,0.858 -1.158,2.452 -0.348,1.965 -1.588,3.446 -3.592,3.335 0,0 -1.229,-0.121 -1.77,-0.832 -0.541,-0.71 -0.328,-1.926 -0.328,-1.926 0.426,-1.963 2.184,-2.761 4.172,-2.572"
     id="path181"
     style="fill:#ffffff;fill-opacity:1" /><path
     inkscape:connector-curvature="0"
     d="m 287.89884,46.409998 c -0.102,-1.033 -0.621,-1.63 -0.621,-1.63 0,0 0.65,0.448 1.689,0.437 1.285,-0.021 2.371,0.583 2.549,1.861 0,0 0.078,0.789 -0.303,1.214 -0.385,0.427 -1.176,0.439 -1.176,0.439 -1.29,-0.032 -2.013,-1.044 -2.138,-2.321"
     id="path183"
     style="fill:#ffffff;fill-opacity:1" /><path
     inkscape:connector-curvature="0"
     d="m 286.84984,54.720998 c -0.176,-1.758 -1.057,-2.769 -1.057,-2.769 0,0 1.105,0.761 2.875,0.737 2.18,-0.031 4.027,0.994 4.328,3.164 0,0 0.129,1.34 -0.52,2.066 -0.648,0.723 -1.994,0.742 -1.994,0.742 -2.194,-0.053 -3.417,-1.773 -3.632,-3.94"
     id="path185"
     style="fill:#ffffff;fill-opacity:1" /><path
     inkscape:connector-curvature="0"
     d="m 298.02384,58.784998 c 1.688,-0.733 2.404,-1.924 2.404,-1.924 0,0 -0.396,1.332 0.199,3.072 0.734,2.143 0.314,4.293 -1.738,5.283 0,0 -1.289,0.557 -2.217,0.148 -0.928,-0.409 -1.383,-1.735 -1.383,-1.735 -0.654,-2.182 0.657,-3.939 2.735,-4.844"
     id="path187"
     style="fill:#ffffff;fill-opacity:1" /><path
     inkscape:connector-curvature="0"
     d="m 304.01384,58.429998 c 0.75,-0.5 0.994,-1.141 0.994,-1.141 0,0 -0.078,0.68 0.359,1.47 0.537,0.974 0.52,2.052 -0.387,2.71 0,0 -0.572,0.38 -1.055,0.264 -0.482,-0.119 -0.814,-0.719 -0.814,-0.719 -0.501,-1.002 -0.023,-1.966 0.903,-2.584"
     id="path189"
     style="fill:#ffffff;fill-opacity:1" /><path
     inkscape:connector-curvature="0"
     d="m 307.60984,63.832998 c 0.711,1.052 1.613,1.392 1.613,1.392 0,0 -0.959,-0.105 -2.066,0.513 -1.365,0.763 -2.881,0.749 -3.811,-0.521 0,0 -0.543,-0.802 -0.381,-1.481 0.162,-0.679 1.006,-1.149 1.006,-1.149 1.403,-0.717 2.766,-0.048 3.639,1.246"
     id="path191"
     style="fill:#ffffff;fill-opacity:1" /><path
     inkscape:connector-curvature="0"
     d="m 300.05284,69.598998 c 0.74,1.398 1.816,1.938 1.816,1.938 0,0 -1.176,-0.254 -2.633,0.368 -1.795,0.767 -3.676,0.542 -4.664,-1.153 0,0 -0.564,-1.069 -0.273,-1.891 0.289,-0.82 1.398,-1.297 1.398,-1.297 1.839,-0.699 3.438,0.31 4.356,2.035"
     id="path193"
     style="fill:#ffffff;fill-opacity:1" /><path
     inkscape:connector-curvature="0"
     d="m 288.56484,61.576998 c -0.373,-1.103 -1.088,-1.624 -1.088,-1.624 0,0 0.824,0.326 1.955,0.049 1.396,-0.344 2.736,0.043 3.252,1.395 0,0 0.279,0.842 -0.029,1.402 -0.308,0.56 -1.172,0.773 -1.172,0.773 -1.416,0.289 -2.459,-0.635 -2.918,-1.995"
     id="path195"
     style="fill:#ffffff;fill-opacity:1" /><path
     inkscape:connector-curvature="0"
     d="m 285.58384,67.009998 c 1.102,-0.939 1.369,-2.006 1.369,-2.006 0,0 0.006,1.099 0.848,2.277 1.039,1.453 1.213,3.174 -0.105,4.392 0,0 -0.84,0.712 -1.631,0.614 -0.789,-0.094 -1.434,-0.993 -1.434,-0.993 -0.988,-1.501 -0.404,-3.127 0.953,-4.284"
     id="path197"
     style="fill:#ffffff;fill-opacity:1" /><path
     inkscape:connector-curvature="0"
     d="m 286.58084,79.165998 c 0.857,1.272 1.947,1.681 1.947,1.681 0,0 -1.156,-0.126 -2.496,0.622 -1.65,0.926 -3.484,0.903 -4.611,-0.633 0,0 -0.654,-0.969 -0.457,-1.789 0.193,-0.82 1.215,-1.392 1.215,-1.392 1.695,-0.864 3.343,-0.057 4.402,1.511"
     id="path199"
     style="fill:#ffffff;fill-opacity:1" /><path
     inkscape:connector-curvature="0"
     d="m 222.04884,61.732998 c 0.014,0.008 1.508,0.915 2.695,1.858 1.477,1.178 2.963,1.738 4.096,2.097 0.521,0.162 1.033,0.271 1.527,0.376 0.674,0.145 1.318,0.281 1.938,0.542 -0.314,-1.645 -1.451,-8.494 0.08,-14.754 0.025,-0.078 2.578,-7.92 2.918,-9.294 l 0.371,0.074 c -0.008,0.048 -0.787,4.894 -1.826,9.465 -1.012,4.442 -0.807,14.881 3.18,18.17 4.141,3.42 7.08,5.585 8.941,5.823 l 0.049,0.011 1.314,1.648 0.152,0.55 c 0,0 -0.191,-0.329 -0.67,-0.329 -1.438,0 -2.914,0.983 -7.305,-2.921 l -0.701,-0.621 c -5.1,-4.537 -7.658,-6.811 -9.244,-7.165 -1.732,-0.383 -4.422,-1.345 -7.758,-5.244 l -0.768,-0.9 1.011,0.614 z"
     id="path201"
     style="fill:#ffffff;fill-opacity:1" /><path
     inkscape:connector-curvature="0"
     d="m 236.53584,73.642998 c -0.406,-0.604 -1.213,-0.99 -1.801,-0.863 -0.223,0.047 -0.502,0.191 -0.572,0.618 -0.045,0.281 0,0.521 0.143,0.733 0.363,0.539 0.846,0.828 1.232,0.72 0.297,-0.148 1.213,-0.123 1.254,-0.582 -0.038,-0.221 -0.125,-0.431 -0.256,-0.626"
     id="path203"
     style="fill:#ffffff;fill-opacity:1" /><path
     inkscape:connector-curvature="0"
     d="m 237.75084,75.833998 c 0.115,0.122 0.465,0.426 0.729,0.361 0.088,-0.022 0.303,-0.102 0.412,-0.348 0.131,-0.292 0.063,-0.704 -0.195,-1.203 -0.043,-0.072 -0.082,-0.142 -0.123,-0.202 -0.215,-0.318 -0.467,-0.488 -0.732,-0.484 -0.264,0 -0.541,0.166 -0.738,0.43 0.043,0.191 0.188,0.803 0.479,1.236 0.052,0.079 0.109,0.151 0.168,0.21"
     id="path205"
     style="fill:#ffffff;fill-opacity:1" /><path
     inkscape:connector-curvature="0"
     d="m 237.09184,78.678998 c 0.078,0.119 0.189,0.206 0.34,0.268 0.518,0.205 0.826,0.253 1.029,0.162 0.174,-0.079 0.305,-0.282 0.439,-0.676 0.098,-0.289 -0.047,-0.734 -0.424,-1.298 -0.227,-0.333 -0.484,-0.633 -0.645,-0.81 -0.111,0.242 -0.34,0.633 -0.693,0.886 -0.071,0.181 -0.362,0.997 -0.046,1.468"
     id="path207"
     style="fill:#ffffff;fill-opacity:1" /><path
     inkscape:connector-curvature="0"
     d="m 235.70784,76.458998 c 0.324,0.484 0.943,0.644 1.379,0.354 0.434,-0.289 0.523,-0.919 0.199,-1.403 -0.326,-0.484 -0.943,-0.643 -1.379,-0.354 -0.434,0.29 -0.528,0.919 -0.199,1.403"
     id="path209"
     style="fill:#ffffff;fill-opacity:1" /><path
     inkscape:connector-curvature="0"
     d="m 235.46684,76.617998 c -0.309,-0.456 -0.316,-1.02 -0.068,-1.436 -0.561,0.127 -1.387,0.438 -1.426,1.189 -0.004,0.115 0.021,0.221 0.082,0.308 0.293,0.438 1.285,0.491 2.043,0.459 -0.244,-0.101 -0.469,-0.278 -0.631,-0.52"
     id="path211"
     style="fill:#ffffff;fill-opacity:1" /><path
     inkscape:connector-curvature="0"
     d="m 235.56284,75.515998 c -0.096,0.296 -0.057,0.646 0.145,0.943 0.215,0.321 0.564,0.495 0.898,0.495 -0.287,-0.174 -0.668,-0.444 -0.887,-0.77 -0.15,-0.228 -0.203,-0.451 -0.156,-0.668"
     id="path213"
     style="fill:#ffffff;fill-opacity:1" /><path
     inkscape:connector-curvature="0"
     d="m 231.48084,51.841998 c 0.178,-0.602 -0.012,-1.35 -0.418,-1.67 -0.154,-0.121 -0.404,-0.227 -0.725,-0.036 -0.213,0.126 -0.346,0.289 -0.408,0.503 -0.156,0.538 -0.082,1.019 0.205,1.213 0.258,0.113 0.746,0.734 1.076,0.508 0.122,-0.149 0.215,-0.321 0.27,-0.518"
     id="path215"
     style="fill:#ffffff;fill-opacity:1" /><path
     inkscape:connector-curvature="0"
     d="m 230.70384,53.860998 c -0.021,0.146 -0.025,0.545 0.164,0.683 0.063,0.045 0.23,0.145 0.455,0.081 0.264,-0.074 0.5,-0.351 0.686,-0.795 0.027,-0.068 0.051,-0.134 0.07,-0.197 0.09,-0.316 0.061,-0.576 -0.088,-0.754 -0.145,-0.174 -0.404,-0.266 -0.689,-0.246 -0.102,0.131 -0.428,0.566 -0.553,1.002 -0.024,0.08 -0.04,0.155 -0.045,0.226"
     id="path217"
     style="fill:#ffffff;fill-opacity:1" /><path
     inkscape:connector-curvature="0"
     d="m 228.45884,55.000998 c -0.035,0.119 -0.031,0.242 0.014,0.372 0.148,0.457 0.283,0.689 0.457,0.771 0.148,0.071 0.354,0.048 0.691,-0.082 0.242,-0.093 0.457,-0.438 0.621,-1 0.098,-0.334 0.152,-0.67 0.182,-0.873 -0.223,0.059 -0.607,0.127 -0.969,0.029 -0.158,0.055 -0.859,0.313 -0.996,0.783"
     id="path219"
     style="fill:#ffffff;fill-opacity:1" /><path
     inkscape:connector-curvature="0"
     d="m 229.16484,52.855998 c -0.141,0.482 0.094,0.98 0.525,1.108 0.431,0.128 0.895,-0.161 1.037,-0.644 0.141,-0.484 -0.096,-0.981 -0.527,-1.109 -0.428,-0.127 -0.895,0.16 -1.035,0.645"
     id="path221"
     style="fill:#ffffff;fill-opacity:1" /><path
     inkscape:connector-curvature="0"
     d="m 228.92784,52.784998 c 0.131,-0.457 0.498,-0.777 0.908,-0.84 -0.391,-0.303 -1.049,-0.676 -1.57,-0.286 -0.08,0.062 -0.133,0.138 -0.158,0.226 -0.129,0.434 0.387,1.121 0.824,1.607 -0.068,-0.218 -0.074,-0.465 -0.004,-0.707"
     id="path223"
     style="fill:#ffffff;fill-opacity:1" /><path
     inkscape:connector-curvature="0"
     d="m 229.70784,52.237998 c -0.248,0.098 -0.457,0.319 -0.545,0.617 -0.092,0.322 -0.016,0.647 0.172,0.867 -0.045,-0.287 -0.076,-0.686 0.02,-1.012 0.065,-0.227 0.185,-0.384 0.353,-0.472"
     id="path225"
     style="fill:#ffffff;fill-opacity:1" /><path
     inkscape:connector-curvature="0"
     d="m 232.31884,40.628998 c -0.133,-0.298 0.195,-0.174 0.143,-0.533 -0.02,-0.123 -0.035,-0.251 -0.039,-0.379 -0.016,-0.273 -0.311,-0.439 -0.266,-0.743 0.012,-0.079 0.33,-0.284 0.346,-0.365 0.063,-0.319 -0.09,-0.848 0.049,-1.2 0.064,-0.162 0.383,-0.137 0.465,-0.305 0.1,-0.207 0.328,-0.447 0.453,-0.664 0.213,0.132 0.412,0.264 0.596,0.398 0.15,0.109 0.422,-0.067 0.557,0.047 0.289,0.245 0.406,0.782 0.613,1.033 0.051,0.064 0.43,0.094 0.479,0.157 0.18,0.247 0.004,0.531 0.117,0.777 0.057,0.119 0.105,0.238 0.148,0.354 0.125,0.342 0.352,0.076 0.377,0.402 0.012,0.123 -0.145,0.848 -0.145,0.967 -0.002,0.403 0.328,0.318 0.236,0.666 -0.031,0.13 -0.463,0.721 -0.502,0.838 -0.125,0.367 0.186,0.49 0.055,0.73 -0.188,0.338 -0.799,0.725 -0.799,0.725 0,0 -0.723,-0.049 -1.049,-0.258 -0.23,-0.15 -0.016,-0.403 -0.299,-0.668 -0.094,-0.084 -0.75,-0.4 -0.84,-0.498 -0.246,-0.264 0.086,-0.348 -0.109,-0.699 -0.057,-0.104 -0.539,-0.668 -0.586,-0.782"
     id="path227"
     style="fill:#ffffff;fill-opacity:1" /><path
     inkscape:connector-curvature="0"
     d="m 226.96084,47.124998 c -0.416,-0.324 0.143,-0.398 -0.211,-0.864 -0.119,-0.159 -0.236,-0.327 -0.346,-0.506 -0.229,-0.37 -0.77,-0.38 -0.941,-0.841 -0.045,-0.123 0.248,-0.654 0.205,-0.781 -0.156,-0.498 -0.775,-1.125 -0.852,-1.73 -0.037,-0.277 0.438,-0.486 0.42,-0.787 -0.02,-0.366 0.117,-0.878 0.129,-1.279 0.404,0.019 0.785,0.053 1.148,0.1 0.297,0.04 0.543,-0.416 0.818,-0.357 0.596,0.123 1.172,0.789 1.656,0.986 0.125,0.051 0.676,-0.2 0.795,-0.146 0.447,0.208 0.412,0.748 0.766,1.005 0.17,0.125 0.328,0.251 0.479,0.386 0.436,0.387 0.553,-0.163 0.842,0.277 0.109,0.163 0.447,1.305 0.537,1.472 0.307,0.571 0.709,0.198 0.848,0.759 0.049,0.206 -0.102,1.368 -0.064,1.567 0.104,0.61 0.637,0.544 0.635,0.987 -0.002,0.619 -0.568,1.635 -0.568,1.635 0,0 -1.059,0.484 -1.678,0.439 -0.439,-0.033 -0.332,-0.559 -0.932,-0.712 -0.197,-0.048 -1.367,0.013 -1.568,-0.056 -0.549,-0.184 -0.145,-0.554 -0.689,-0.904 -0.161,-0.105 -1.272,-0.531 -1.429,-0.65"
     id="path229"
     style="fill:#ffffff;fill-opacity:1" /><path
     inkscape:connector-curvature="0"
     d="m 236.97884,43.733998 c 0.285,-0.225 0.238,0.158 0.607,0.002 0.127,-0.057 0.258,-0.104 0.395,-0.148 0.285,-0.091 0.379,-0.45 0.713,-0.488 0.088,-0.011 0.391,0.271 0.484,0.266 0.357,-0.023 0.877,-0.332 1.289,-0.283 0.191,0.021 0.254,0.368 0.455,0.408 0.244,0.049 0.563,0.225 0.828,0.298 -0.078,0.265 -0.164,0.512 -0.256,0.747 -0.074,0.191 0.186,0.43 0.105,0.602 -0.182,0.377 -0.721,0.654 -0.93,0.945 -0.057,0.074 0.02,0.482 -0.037,0.553 -0.209,0.262 -0.563,0.152 -0.793,0.344 -0.107,0.092 -0.221,0.179 -0.332,0.256 -0.332,0.227 0.016,0.395 -0.324,0.514 -0.127,0.047 -0.941,0.084 -1.066,0.117 -0.432,0.109 -0.248,0.438 -0.645,0.438 -0.146,0 -0.891,-0.289 -1.029,-0.298 -0.422,-0.032 -0.467,0.335 -0.76,0.261 -0.41,-0.104 -0.994,-0.647 -0.994,-0.647 0,0 -0.146,-0.786 -0.016,-1.189 0.096,-0.289 0.428,-0.13 0.629,-0.504 0.064,-0.123 0.219,-0.911 0.295,-1.036 0.213,-0.334 0.391,-0.005 0.715,-0.311 0.097,-0.093 0.564,-0.764 0.667,-0.847"
     id="path231"
     style="fill:#ffffff;fill-opacity:1" /><path
     inkscape:connector-curvature="0"
     d="m 235.18384,51.362998 c 0.338,-0.352 0.35,0.172 0.814,-0.109 0.158,-0.094 0.324,-0.184 0.502,-0.269 0.363,-0.174 0.426,-0.673 0.867,-0.784 0.117,-0.029 0.576,0.294 0.699,0.27 0.475,-0.097 1.113,-0.605 1.678,-0.617 0.258,-0.004 0.404,0.454 0.684,0.469 0.338,0.018 0.795,0.195 1.166,0.247 -0.061,0.368 -0.129,0.718 -0.211,1.048 -0.064,0.271 0.328,0.545 0.248,0.791 -0.172,0.538 -0.844,1.004 -1.072,1.431 -0.061,0.112 0.117,0.647 0.053,0.75 -0.234,0.391 -0.73,0.306 -1,0.605 -0.133,0.145 -0.264,0.278 -0.402,0.403 -0.4,0.365 0.092,0.527 -0.342,0.75 -0.16,0.083 -1.244,0.281 -1.408,0.349 -0.557,0.226 -0.254,0.633 -0.783,0.707 -0.197,0.024 -1.25,-0.228 -1.438,-0.218 -0.57,0.035 -0.564,0.533 -0.971,0.488 -0.57,-0.064 -1.449,-0.688 -1.449,-0.688 0,0 -0.34,-1.024 -0.234,-1.591 0.074,-0.404 0.547,-0.252 0.748,-0.791 0.063,-0.176 0.127,-1.26 0.209,-1.44 0.223,-0.488 0.525,-0.077 0.902,-0.548 0.109,-0.137 0.615,-1.122 0.74,-1.253"
     id="path233"
     style="fill:#ffffff;fill-opacity:1" /><path
     inkscape:connector-curvature="0"
     d="m 235.14284,59.717998 c 0.234,-0.243 0.24,0.116 0.561,-0.073 0.109,-0.067 0.225,-0.129 0.346,-0.188 0.25,-0.117 0.293,-0.462 0.596,-0.54 0.082,-0.02 0.4,0.204 0.482,0.188 0.328,-0.066 0.768,-0.419 1.156,-0.426 0.176,-0.002 0.277,0.313 0.469,0.323 0.232,0.011 0.549,0.136 0.803,0.17 -0.039,0.255 -0.088,0.495 -0.145,0.721 -0.043,0.186 0.227,0.377 0.172,0.543 -0.119,0.373 -0.582,0.694 -0.74,0.987 -0.041,0.076 0.08,0.444 0.037,0.517 -0.162,0.268 -0.5,0.21 -0.689,0.416 -0.09,0.101 -0.182,0.191 -0.275,0.278 -0.277,0.253 0.064,0.361 -0.236,0.517 -0.111,0.058 -0.855,0.195 -0.969,0.238 -0.385,0.156 -0.174,0.438 -0.539,0.484 -0.137,0.022 -0.861,-0.155 -0.988,-0.147 -0.395,0.025 -0.389,0.368 -0.668,0.336 -0.395,-0.044 -1,-0.474 -1,-0.474 0,0 -0.232,-0.705 -0.16,-1.096 0.049,-0.278 0.377,-0.173 0.514,-0.545 0.045,-0.12 0.088,-0.868 0.145,-0.991 0.154,-0.336 0.361,-0.054 0.619,-0.376 0.075,-0.098 0.423,-0.771 0.509,-0.862"
     id="path235"
     style="fill:#ffffff;fill-opacity:1" /><path
     inkscape:connector-curvature="0"
     d="m 237.19984,69.229998 c -0.133,-0.391 0.264,-0.195 0.236,-0.654 -0.008,-0.155 -0.012,-0.318 -0.006,-0.48 0.01,-0.34 -0.34,-0.582 -0.254,-0.954 0.025,-0.098 0.447,-0.318 0.477,-0.42 0.115,-0.394 -0.021,-1.069 0.193,-1.496 0.098,-0.195 0.5,-0.13 0.619,-0.329 0.146,-0.246 0.459,-0.524 0.641,-0.777 0.256,0.185 0.492,0.372 0.709,0.561 0.178,0.155 0.537,-0.033 0.693,0.123 0.336,0.34 0.424,1.022 0.656,1.362 0.061,0.087 0.531,0.163 0.584,0.25 0.203,0.328 -0.053,0.665 0.066,0.986 0.055,0.151 0.105,0.304 0.145,0.455 0.119,0.445 0.436,0.138 0.434,0.55 -0.002,0.152 -0.277,1.041 -0.289,1.189 -0.047,0.506 0.377,0.438 0.223,0.863 -0.055,0.156 -0.658,0.847 -0.723,0.991 -0.197,0.444 0.182,0.632 -0.01,0.918 -0.273,0.404 -1.084,0.82 -1.084,0.82 0,0 -0.906,-0.145 -1.293,-0.44 -0.275,-0.214 0.025,-0.51 -0.303,-0.872 -0.105,-0.115 -0.898,-0.585 -1.002,-0.715 -0.281,-0.358 0.146,-0.423 -0.061,-0.89 -0.059,-0.138 -0.602,-0.897 -0.651,-1.041"
     id="path237"
     style="fill:#ffffff;fill-opacity:1" /><path
     inkscape:connector-curvature="0"
     d="m 225.12584,61.717998 c -0.168,-0.419 0.275,-0.231 0.217,-0.727 -0.02,-0.173 -0.033,-0.347 -0.039,-0.527 -0.006,-0.372 -0.404,-0.611 -0.332,-1.027 0.018,-0.108 0.465,-0.374 0.49,-0.488 0.098,-0.438 -0.088,-1.167 0.113,-1.646 0.094,-0.22 0.533,-0.17 0.652,-0.399 0.143,-0.28 0.467,-0.6 0.65,-0.891 0.289,0.186 0.555,0.377 0.801,0.567 0.205,0.157 0.582,-0.072 0.76,0.089 0.389,0.348 0.527,1.092 0.803,1.443 0.07,0.094 0.586,0.145 0.648,0.236 0.24,0.346 -0.016,0.73 0.135,1.072 0.07,0.165 0.131,0.329 0.186,0.492 0.156,0.476 0.479,0.118 0.504,0.566 0.01,0.17 -0.232,1.16 -0.238,1.323 -0.021,0.553 0.436,0.451 0.299,0.925 -0.053,0.174 -0.664,0.969 -0.725,1.132 -0.188,0.495 0.236,0.676 0.045,1.001 -0.27,0.459 -1.129,0.965 -1.129,0.965 0,0 -0.99,-0.098 -1.428,-0.397 -0.311,-0.217 -0.004,-0.557 -0.383,-0.929 -0.123,-0.119 -1.014,-0.582 -1.135,-0.72 -0.324,-0.372 0.133,-0.47 -0.121,-0.965 -0.074,-0.144 -0.711,-0.939 -0.773,-1.095"
     id="path239"
     style="fill:#ffffff;fill-opacity:1" /><path
     inkscape:connector-curvature="0"
     d="m 243.23484,81.750998 c -0.336,0.115 -0.172,-0.228 -0.568,-0.202 -0.135,0.011 -0.273,0.018 -0.414,0.011 -0.297,-0.008 -0.504,0.3 -0.826,0.228 -0.088,-0.019 -0.281,-0.384 -0.369,-0.408 -0.342,-0.095 -0.928,0.024 -1.299,-0.152 -0.172,-0.083 -0.115,-0.43 -0.293,-0.535 -0.213,-0.123 -0.455,-0.394 -0.678,-0.549 0.158,-0.225 0.318,-0.427 0.48,-0.618 0.133,-0.155 -0.035,-0.467 0.1,-0.601 0.291,-0.296 0.885,-0.379 1.174,-0.582 0.074,-0.054 0.139,-0.462 0.211,-0.51 0.285,-0.181 0.58,0.04 0.855,-0.068 0.135,-0.047 0.266,-0.094 0.396,-0.126 0.381,-0.109 0.111,-0.38 0.469,-0.38 0.135,-0.004 0.908,0.228 1.037,0.238 0.439,0.036 0.375,-0.332 0.746,-0.202 0.135,0.047 0.738,0.563 0.865,0.618 0.387,0.166 0.547,-0.163 0.795,0 0.354,0.231 0.721,0.933 0.721,0.933 0,0 -0.117,0.788 -0.371,1.124 -0.184,0.238 -0.441,-0.019 -0.75,0.271 -0.1,0.094 -0.5,0.784 -0.613,0.874 -0.307,0.246 -0.369,-0.123 -0.77,0.059 -0.119,0.053 -0.771,0.53 -0.898,0.577"
     id="path241"
     style="fill:#ffffff;fill-opacity:1" /><path
     inkscape:connector-curvature="0"
     d="m 220.31884,60.029998 c -0.104,-0.239 0.156,-0.137 0.111,-0.424 -0.014,-0.096 -0.023,-0.197 -0.029,-0.3 -0.012,-0.216 -0.244,-0.346 -0.209,-0.588 0.008,-0.062 0.26,-0.225 0.273,-0.289 0.049,-0.253 -0.07,-0.67 0.039,-0.951 0.051,-0.126 0.303,-0.106 0.367,-0.242 0.078,-0.162 0.258,-0.35 0.359,-0.523 0.17,0.104 0.326,0.209 0.471,0.314 0.119,0.088 0.334,-0.051 0.439,0.037 0.229,0.193 0.324,0.621 0.486,0.819 0.041,0.051 0.34,0.072 0.377,0.125 0.145,0.194 0.004,0.421 0.096,0.614 0.043,0.094 0.082,0.188 0.115,0.28 0.1,0.271 0.279,0.062 0.299,0.319 0.008,0.097 -0.113,0.671 -0.113,0.765 -0.002,0.317 0.258,0.252 0.186,0.527 -0.025,0.101 -0.365,0.571 -0.396,0.665 -0.098,0.289 0.148,0.383 0.043,0.574 -0.146,0.268 -0.633,0.575 -0.633,0.575 0,0 -0.572,-0.04 -0.828,-0.202 -0.184,-0.12 -0.014,-0.322 -0.238,-0.528 -0.072,-0.068 -0.592,-0.318 -0.664,-0.397 -0.193,-0.206 0.068,-0.274 -0.086,-0.553 -0.045,-0.081 -0.426,-0.527 -0.465,-0.617"
     id="path243"
     style="fill:#ffffff;fill-opacity:1" /><path
     inkscape:connector-curvature="0"
     d="m 219.94184,65.339998 c -0.334,0.062 -0.131,-0.238 -0.506,-0.268 -0.129,-0.011 -0.26,-0.028 -0.395,-0.05 -0.275,-0.051 -0.514,0.205 -0.809,0.09 -0.078,-0.029 -0.209,-0.394 -0.289,-0.43 -0.307,-0.138 -0.873,-0.109 -1.199,-0.329 -0.148,-0.102 -0.047,-0.416 -0.199,-0.539 -0.182,-0.145 -0.371,-0.43 -0.561,-0.607 0.182,-0.181 0.361,-0.351 0.541,-0.502 0.148,-0.127 0.035,-0.438 0.18,-0.546 0.316,-0.231 0.883,-0.225 1.188,-0.372 0.076,-0.036 0.195,-0.409 0.271,-0.441 0.291,-0.126 0.537,0.123 0.813,0.062 0.131,-0.029 0.264,-0.051 0.393,-0.065 0.373,-0.043 0.158,-0.332 0.494,-0.285 0.127,0.021 0.82,0.347 0.939,0.372 0.408,0.098 0.4,-0.253 0.73,-0.079 0.121,0.062 0.619,0.629 0.727,0.697 0.34,0.21 0.537,-0.072 0.748,0.116 0.299,0.268 0.547,0.969 0.547,0.969 0,0 -0.223,0.712 -0.51,0.99 -0.205,0.195 -0.412,-0.08 -0.744,0.141 -0.107,0.072 -0.582,0.658 -0.703,0.727 -0.322,0.185 -0.328,-0.166 -0.73,-0.054 -0.119,0.031 -0.801,0.381 -0.926,0.403"
     id="path245"
     style="fill:#ffffff;fill-opacity:1" /><path
     inkscape:connector-curvature="0"
     d="m 229.89084,72.305998 c -0.371,0.13 -0.189,-0.246 -0.621,-0.21 -0.148,0.011 -0.301,0.015 -0.457,0.011 -0.324,-0.003 -0.551,0.325 -0.906,0.25 -0.094,-0.021 -0.305,-0.416 -0.4,-0.441 -0.375,-0.102 -1.018,0.032 -1.428,-0.159 -0.184,-0.09 -0.121,-0.466 -0.316,-0.578 -0.236,-0.134 -0.498,-0.423 -0.744,-0.589 0.176,-0.242 0.352,-0.467 0.527,-0.673 0.146,-0.17 -0.035,-0.506 0.111,-0.65 0.318,-0.321 0.967,-0.416 1.289,-0.636 0.08,-0.059 0.148,-0.503 0.23,-0.554 0.311,-0.195 0.633,0.04 0.936,-0.072 0.146,-0.058 0.291,-0.104 0.434,-0.145 0.42,-0.119 0.125,-0.412 0.516,-0.416 0.145,0 0.992,0.246 1.135,0.257 0.48,0.036 0.412,-0.361 0.814,-0.224 0.152,0.051 0.813,0.61 0.951,0.665 0.422,0.181 0.596,-0.178 0.871,0 0.385,0.249 0.787,1.005 0.787,1.005 0,0 -0.129,0.853 -0.408,1.218 -0.199,0.261 -0.48,-0.015 -0.82,0.297 -0.111,0.101 -0.549,0.853 -0.674,0.95 -0.336,0.268 -0.404,-0.13 -0.844,0.069 -0.127,0.057 -0.844,0.578 -0.983,0.625"
     id="path247"
     style="fill:#ffffff;fill-opacity:1" /><g
     id="g249"
     style="fill:#666f77;fill-opacity:1"
     transform="translate(-20.187159,-9.7721845)"><path
       inkscape:connector-curvature="0"
       d="m 180.021,40.075 -5.606,7.475 -0.64,0 -5.483,-7.5 0,12.517 -3.246,0 0,-17.214 3.738,0 5.385,7.402 5.385,-7.402 3.713,0 0,17.213 -3.245,0 0,-12.491 z"
       id="path251"
       style="fill:#666f77;fill-opacity:1" /><path
       inkscape:connector-curvature="0"
       d="m 190.767,38.28 -5.459,0 0,-2.951 c 4.967,0 9.173,0 14.164,0 l 0,2.951 -5.459,0 0,14.262 -3.246,0 0,-14.262 z"
       id="path253"
       style="fill:#666f77;fill-opacity:1" /><path
       inkscape:connector-curvature="0"
       d="m 201.463,52.542 0,-17.213 3.223,0 0,17.213 -3.223,0 z"
       id="path255"
       style="fill:#666f77;fill-opacity:1" /></g><path
     inkscape:connector-curvature="0"
     style="fill:#666f77;fill-opacity:1"
     id="path259"
     d="m 22.478841,59.826816 -6.038,0 c 0,-2.686 0,-5.381 0,-8.067 l 6.038,0 0,1.476 -4.528,0 0,1.854 4.367,0 0,1.418 -4.367,0 0,1.821 4.528,0 0,1.498 z" /><path
     inkscape:connector-curvature="0"
     style="fill:#666f77;fill-opacity:1"
     id="path261"
     d="m 30.684841,53.984816 -2.628,3.501999 -0.3,0 -2.57,-3.513999 0,5.864999 -1.521,0 0,-8.066999 1.752,0 2.524,3.468999 2.524,-3.468999 1.739,0 0,8.067 -1.521,0 0,-5.853 z" /><path
     inkscape:connector-curvature="0"
     style="fill:#666f77;fill-opacity:1"
     id="path263"
     d="m 37.437841,57.453815 -2.281,0 0,2.373001 -1.521,0 0,-8.067 c 1.268,0 2.535,-0.011 3.803,-0.011 3.941,0 3.952,5.705 -10e-4,5.705 z m -2.281,-1.395 2.281,0 c 1.948,0 1.937,-2.856999 0,-2.856999 l -2.281,0 0,2.856999 z" /><path
     inkscape:connector-curvature="0"
     style="fill:#666f77;fill-opacity:1"
     id="path265"
     d="m 48.582841,59.826816 -1.81,0 -2.351,-2.696 -1.464,0 0,2.696 -1.521,0 0,-8.078001 c 1.279,0 2.559,0.011 3.838,0.011 1.902,0.012 2.904,1.28 2.904,2.675 0,1.104 -0.507,2.224 -2.04,2.535 l 2.443,2.754 0,0.103 z m -5.624,-6.650001 0,2.582 2.316,0 c 0.969,0 1.383,-0.646 1.383,-1.291 0,-0.645 -0.426,-1.291 -1.383,-1.291 l -2.316,0 z" /><path
     inkscape:connector-curvature="0"
     style="fill:#666f77;fill-opacity:1"
     id="path267"
     d="m 55.220841,59.826816 -6.039,0 c 0,-2.686 0,-5.381 0,-8.067 l 6.039,0 0,1.476 -4.53,0 0,1.854 4.368,0 0,1.418 -4.368,0 0,1.821 4.53,0 0,1.498 z" /><path
     inkscape:connector-curvature="0"
     style="fill:#666f77;fill-opacity:1"
     id="path269"
     d="m 61.374841,53.707816 c -0.276,-0.46 -1.037,-0.898 -1.912,-0.898 -1.13,0 -1.672,0.471999 -1.672,1.071 0,0.702 0.83,0.897999 1.797,1.013999 1.684,0.208 3.251,0.645 3.251,2.57 0,1.799 -1.591,2.571 -3.388,2.571 -1.648,0 -2.916,-0.509 -3.516,-1.983 l 1.268,-0.656 c 0.357,0.887 1.291,1.278 2.27,1.278 0.957,0 1.856,-0.335 1.856,-1.21 0,-0.762 -0.795,-1.072 -1.866,-1.188 -1.648,-0.196 -3.17,-0.634 -3.17,-2.443 0,-1.658 1.637,-2.339 3.123,-2.351 1.256,0 2.559,0.358 3.169,1.603 l -1.21,0.622 z" /><path
     inkscape:connector-curvature="0"
     style="fill:#666f77;fill-opacity:1"
     id="path271"
     d="m 69.741841,58.306815 -4.218,0 -0.691,1.521 -1.648,0 3.618,-8.067 1.66,0 3.619,8.067 -1.66,0 -0.68,-1.521 z m -2.11,-4.853 -1.497,3.435 2.995,0 -1.498,-3.435 z" /><path
     inkscape:connector-curvature="0"
     style="fill:#666f77;fill-opacity:1"
     id="path273"
     d="m 82.002841,53.984816 -2.627,3.501999 -0.299,0 -2.57,-3.513999 0,5.864999 -1.521,0 0,-8.066999 1.751,0 2.524,3.468999 2.523,-3.468999 1.74,0 0,8.067 -1.521,0 0,-5.853 z" /><path
     inkscape:connector-curvature="0"
     style="fill:#666f77;fill-opacity:1"
     id="path275"
     d="m 90.681841,58.306815 -4.218,0 -0.691,1.521 -1.648,0 3.619,-8.067 1.659,0 3.618,8.067 -1.659,0 -0.68,-1.521 z m -2.109,-4.853 -1.498,3.435 2.996,0 -1.498,-3.435 z" /><path
     inkscape:connector-curvature="0"
     style="fill:#666f77;fill-opacity:1"
     id="path277"
     d="m 95.670841,53.143815 -2.558,0 0,-1.384 c 2.327,0 4.299,0 6.638,0 l 0,1.384 -2.559,0 0,6.684 -1.521,0 0,-6.684 z" /><path
     inkscape:connector-curvature="0"
     style="fill:#666f77;fill-opacity:1"
     id="path279"
     d="m 108.60284,55.840815 c -0.023,2.085 -1.303,4.171001 -4.137,4.171001 -2.836,0 -4.15,-2.039 -4.15,-4.161 0,-2.120001 1.361,-4.252 4.15,-4.252 2.777,0 4.16,2.131 4.137,4.242 z m -6.788,0.033 c 0.034,1.326 0.749,2.743 2.651,2.743 1.9,0 2.615,-1.429 2.639,-2.755 0.022,-1.358999 -0.738,-2.881 -2.639,-2.881 -1.902,0 -2.685,1.534001 -2.651,2.893 z" /><path
     inkscape:connector-curvature="0"
     style="fill:#666f77;fill-opacity:1"
     id="path281"
     d="m 109.55884,55.423815 4.253,0 0,1.291 -4.253,0 0,-1.291 z" /><path
     inkscape:connector-curvature="0"
     style="fill:#666f77;fill-opacity:1"
     id="path283"
     d="m 120.99184,53.729815 c -0.542,-0.519 -1.348,-0.806 -2.051,-0.806 -1.729,0 -2.777,1.313 -2.777,2.973 0,1.325 0.771,2.697 2.777,2.697 0.633,0 1.188,-0.14 1.82,-0.646 l 0,-1.429 -2.063,0 0,-1.359 3.457,0 0,3.399 c -0.795,0.91 -1.798,1.452 -3.215,1.452 -3.031,0 -4.264,-1.992999 -4.264,-4.114 0,-2.271 1.416,-4.367 4.264,-4.367 1.082,0 2.166,0.414 2.995,1.232 l -0.943,0.968 z" /><path
     inkscape:connector-curvature="0"
     style="fill:#666f77;fill-opacity:1"
     id="path285"
     d="m 130.55684,59.826816 -1.81,0 -2.351,-2.696 -1.464,0 0,2.696 -1.521,0 0,-8.078001 c 1.279,0 2.56,0.011 3.839,0.011 1.9,0.012 2.903,1.28 2.903,2.675 0,1.104 -0.507,2.224 -2.04,2.535 l 2.443,2.754 0,0.103 z m -5.624,-6.650001 0,2.582 2.317,0 c 0.967,0 1.382,-0.646 1.382,-1.291 0,-0.645 -0.427,-1.291 -1.382,-1.291 l -2.317,0 z" /><path
     inkscape:connector-curvature="0"
     style="fill:#666f77;fill-opacity:1"
     id="path287"
     d="m 139.10784,55.840815 c -0.022,2.085 -1.301,4.171001 -4.137,4.171001 -2.835,0 -4.148,-2.039 -4.148,-4.161 0,-2.120001 1.359,-4.252 4.148,-4.252 2.778,0 4.16,2.131 4.137,4.242 z m -6.787,0.033 c 0.033,1.326 0.749,2.743 2.65,2.743 1.901,0 2.616,-1.429 2.639,-2.755 0.023,-1.358999 -0.737,-2.881 -2.639,-2.881 -1.902,0 -2.685,1.534001 -2.65,2.893 z" /><path
     inkscape:connector-curvature="0"
     style="fill:#666f77;fill-opacity:1"
     id="path289"
     d="m 145.20484,53.707816 c -0.276,-0.46 -1.037,-0.898 -1.913,-0.898 -1.129,0 -1.671,0.471999 -1.671,1.071 0,0.702 0.829,0.897999 1.798,1.013999 1.683,0.208 3.25,0.645 3.25,2.57 0,1.799 -1.59,2.571 -3.388,2.571 -1.648,0 -2.916,-0.509 -3.516,-1.983 l 1.269,-0.656 c 0.356,0.887 1.291,1.278 2.27,1.278 0.957,0 1.855,-0.335 1.855,-1.21 0,-0.762 -0.795,-1.072 -1.867,-1.188 -1.648,-0.196 -3.169,-0.634 -3.169,-2.443 0,-1.658 1.636,-2.339 3.123,-2.351 1.257,0 2.559,0.358 3.169,1.603 l -1.21,0.622 z" /><path
     inkscape:connector-curvature="0"
     style="fill:#666f77;fill-opacity:1"
     id="path291"
     d="m 152.82184,53.707816 c -0.275,-0.46 -1.036,-0.898 -1.913,-0.898 -1.129,0 -1.67,0.471999 -1.67,1.071 0,0.702 0.829,0.897999 1.797,1.013999 1.684,0.208 3.25,0.645 3.25,2.57 0,1.799 -1.59,2.571 -3.388,2.571 -1.648,0 -2.916,-0.509 -3.515,-1.983 l 1.268,-0.656 c 0.357,0.887 1.291,1.278 2.27,1.278 0.957,0 1.855,-0.335 1.855,-1.21 0,-0.762 -0.795,-1.072 -1.867,-1.188 -1.646,-0.196 -3.169,-0.634 -3.169,-2.443 0,-1.658 1.638,-2.339 3.124,-2.351 1.256,0 2.559,0.358 3.169,1.603 l -1.211,0.622 z" /><path
     inkscape:connector-curvature="0"
     style="fill:#666f77;fill-opacity:1"
     id="path293"
     d="m 161.47784,59.826816 -6.039,0 c 0,-2.686 0,-5.381 0,-8.067 l 6.039,0 0,1.476 -4.53,0 0,1.854 4.368,0 0,1.418 -4.368,0 0,1.821 4.53,0 0,1.498 z" /><path
     inkscape:connector-curvature="0"
     style="fill:#666f77;fill-opacity:1"
     id="path295"
     d="m 167.95484,51.748815 1.521,0 0,8.078001 -0.945,0 0,0.012 -4.24,-5.451 0,5.439 -1.521,0 0,-8.067 1.233,0 3.953,5.002 0,-5.013001 z" /><path
     inkscape:connector-curvature="0"
     style="fill:#666f77;fill-opacity:1"
     id="path297"
     d="m 175.84784,53.707816 c -0.275,-0.46 -1.036,-0.898 -1.912,-0.898 -1.13,0 -1.672,0.471999 -1.672,1.071 0,0.702 0.83,0.897999 1.798,1.013999 1.683,0.208 3.251,0.645 3.251,2.57 0,1.799 -1.591,2.571 -3.389,2.571 -1.648,0 -2.916,-0.509 -3.515,-1.983 l 1.267,-0.656 c 0.357,0.887 1.291,1.278 2.271,1.278 0.956,0 1.855,-0.335 1.855,-1.21 0,-0.762 -0.795,-1.072 -1.867,-1.188 -1.648,-0.196 -3.17,-0.634 -3.17,-2.443 0,-1.658 1.637,-2.339 3.123,-2.351 1.257,0 2.559,0.358 3.17,1.603 l -1.21,0.622 z" /><path
     inkscape:connector-curvature="0"
     style="fill:#666f77;fill-opacity:1"
     id="path299"
     d="m 184.50384,59.826816 -6.039,0 c 0,-2.686 0,-5.381 0,-8.067 l 6.039,0 0,1.476 -4.529,0 0,1.854 4.367,0 0,1.418 -4.367,0 0,1.821 4.529,0 0,1.498 z" /><path
     inkscape:connector-curvature="0"
     style="fill:#666f77;fill-opacity:1"
     id="path301"
     d="m 82.438841,69.695509 c 0.033,2.039 -1.211,4.103 -4.034,4.103 -0.991,0 -2.179,0 -3.169,0 l 0,-8.067 c 0.99,0 2.178,0 3.169,0 2.765,-0.001 3.999,1.97 4.034,3.964 z m -5.693,2.638 1.659,0 c 1.833,0 2.558,-1.337 2.524,-2.65 -0.035,-1.257 -0.772,-2.512 -2.524,-2.512 l -1.659,0 0,5.162 z" /><path
     inkscape:connector-curvature="0"
     style="fill:#666f77;fill-opacity:1"
     id="path303"
     d="m 89.456841,73.797509 -6.039,0 c 0,-2.686 0,-5.382 0,-8.067 l 6.039,0 0,1.476 -4.529,0 0,1.855 4.368,0 0,1.417 -4.368,0 0,1.821 4.529,0 0,1.498 z" /><path
     inkscape:connector-curvature="0"
     style="fill:#666f77;fill-opacity:1"
     id="path305"
     d="m 95.045841,67.113509 -2.559,0 0,-1.383 c 2.328,0 4.299,0 6.639,0 l 0,1.383 -2.559,0 0,6.685 -1.521,0 0,-6.685 z" /><path
     inkscape:connector-curvature="0"
     style="fill:#666f77;fill-opacity:1"
     id="path307"
     d="m 106.06384,73.797509 -6.039,0 c 0,-2.686 0,-5.382 0,-8.067 l 6.039,0 0,1.476 -4.529,0 0,1.855 4.367,0 0,1.417 -4.367,0 0,1.821 4.529,0 0,1.498 z" /><path
     inkscape:connector-curvature="0"
     style="fill:#666f77;fill-opacity:1"
     id="path309"
     d="m 114.34984,72.783509 c -0.83,0.819 -1.901,1.198 -3.065,1.198 -2.997,0 -4.265,-2.063 -4.275,-4.16 -0.013,-2.108 1.359,-4.252 4.275,-4.252 1.094,0 2.132,0.415 2.962,1.233 l -1.015,0.979 c -0.53,-0.519 -1.245,-0.761 -1.947,-0.761 -1.947,0 -2.789,1.451 -2.777,2.8 0.012,1.337 0.783,2.731 2.777,2.731 0.702,0 1.498,-0.288 2.027,-0.818 l 1.038,1.05 z" /><path
     inkscape:connector-curvature="0"
     style="fill:#666f77;fill-opacity:1"
     id="path311"
     d="m 120.14684,65.718509 1.521,0 0,8.079 -0.945,0 0,0.012 -4.24,-5.452 0,5.44 -1.521,0 0,-8.067 1.232,0 3.954,5.002 0,-5.014 z" /><path
     inkscape:connector-curvature="0"
     style="fill:#666f77;fill-opacity:1"
     id="path313"
     d="m 130.99184,69.810509 c -0.023,2.086 -1.303,4.171 -4.137,4.171 -2.836,0 -4.15,-2.039 -4.15,-4.16 0,-2.119 1.36,-4.252 4.15,-4.252 2.776,0 4.16,2.132 4.137,4.241 z m -6.789,0.035 c 0.035,1.324 0.75,2.742 2.652,2.742 1.9,0 2.615,-1.43 2.639,-2.755 0.023,-1.36 -0.738,-2.882 -2.639,-2.882 -1.902,0.001 -2.686,1.534 -2.652,2.895 z" /><path
     inkscape:connector-curvature="0"
     style="fill:#666f77;fill-opacity:1"
     id="path315"
     d="m 133.62984,65.730509 0,6.661 4.149,0 0,1.406 -5.671,0 0,-8.067 1.522,0 z" /><path
     inkscape:connector-curvature="0"
     style="fill:#666f77;fill-opacity:1"
     id="path317"
     d="m 146.77884,69.810509 c -0.021,2.086 -1.301,4.171 -4.136,4.171 -2.835,0 -4.149,-2.039 -4.149,-4.16 0,-2.119 1.359,-4.252 4.149,-4.252 2.776,0 4.159,2.132 4.136,4.241 z m -6.787,0.035 c 0.035,1.324 0.75,2.742 2.651,2.742 1.901,0 2.616,-1.43 2.639,-2.755 0.022,-1.36 -0.737,-2.882 -2.639,-2.882 -1.902,0 -2.686,1.534 -2.651,2.895 z" /><path
     inkscape:connector-curvature="0"
     style="fill:#666f77;fill-opacity:1"
     id="path319"
     d="m 153.88984,67.701509 c -0.541,-0.521 -1.348,-0.808 -2.051,-0.808 -1.729,0 -2.777,1.314 -2.777,2.973 0,1.326 0.771,2.697 2.777,2.697 0.634,0 1.188,-0.138 1.821,-0.646 l 0,-1.429 -2.063,0 0,-1.36 3.457,0 0,3.401 c -0.795,0.909 -1.797,1.45 -3.215,1.45 -3.031,0 -4.264,-1.992 -4.264,-4.114 0,-2.269 1.417,-4.367 4.264,-4.367 1.083,0 2.166,0.415 2.996,1.233 l -0.945,0.97 z" /><path
     inkscape:connector-curvature="0"
     style="fill:#666f77;fill-opacity:1"
     id="path321"
     d="m 156.30984,73.797509 0,-8.067 1.511,0 0,8.067 -1.511,0 z" /><path
     inkscape:connector-curvature="0"
     style="fill:#666f77;fill-opacity:1"
     id="path323"
     d="m 164.97784,72.276509 -4.219,0 -0.691,1.521 -1.648,0 3.619,-8.067 1.66,0 3.618,8.067 -1.659,0 -0.68,-1.521 z m -2.109,-4.852 -1.498,3.435 2.996,0 -1.498,-3.435 z" /><path
     inkscape:connector-curvature="0"
     style="fill:#666f77;fill-opacity:1"
     id="path325"
     d="m 177.30784,69.695509 c 0.035,2.039 -1.21,4.103 -4.033,4.103 -0.991,0 -2.178,0 -3.17,0 l 0,-8.067 c 0.992,0 2.179,0 3.17,0 2.766,-0.001 3.999,1.97 4.033,3.964 z m -5.693,2.638 1.66,0 c 1.833,0 2.559,-1.337 2.523,-2.65 -0.033,-1.257 -0.771,-2.512 -2.523,-2.512 l -1.66,0 0,5.162 z" /><path
     inkscape:connector-curvature="0"
     style="fill:#666f77;fill-opacity:1"
     id="path327"
     d="m 184.03984,72.276509 -4.219,0 -0.69,1.521 -1.648,0 3.618,-8.067 1.66,0 3.618,8.067 -1.659,0 -0.68,-1.521 z m -2.11,-4.852 -1.498,3.435 2.996,0 -1.498,-3.435 z" /><path
     inkscape:connector-curvature="0"
     style="fill:#666f77;fill-opacity:1"
     id="path329"
     d="m 109.28284,87.323818 0,-8.067003 1.51,0 0,8.067003 -1.51,0 z" /><path
     inkscape:connector-curvature="0"
     style="fill:#666f77;fill-opacity:1"
     id="path331"
     d="m 117.52284,79.244815 1.521,0 0,8.079003 -0.945,0 0,0.012 -4.241,-5.452003 0,5.440003 -1.521,0 0,-8.067003 1.233,0 3.953,5.002003 0,-5.014003 z" /><path
     inkscape:connector-curvature="0"
     style="fill:#666f77;fill-opacity:1"
     id="path333"
     d="m 120.43884,87.323818 0,-8.055003 5.796,0 0,1.463 -4.274,0 0,2.201003 4.044,0 0,1.406 -4.044,0 0,2.984 -1.522,0 z" /><path
     inkscape:connector-curvature="0"
     style="fill:#666f77;fill-opacity:1"
     id="path335"
     d="m 135.21284,83.336818 c -0.023,2.086 -1.303,4.171 -4.137,4.171 -2.836,0 -4.15,-2.039 -4.15,-4.16 0,-2.119003 1.36,-4.252003 4.15,-4.252003 2.777,0 4.16,2.132 4.137,4.241003 z m -6.789,0.035 c 0.035,1.324 0.75,2.742 2.652,2.742 1.901,0 2.615,-1.43 2.639,-2.755 0.022,-1.36 -0.737,-2.882003 -2.639,-2.882003 -1.902,0.001 -2.685,1.534003 -2.652,2.895003 z" /><path
     inkscape:connector-curvature="0"
     style="fill:#666f77;fill-opacity:1"
     id="path337"
     d="m 143.48784,87.323818 -1.81,0 -2.35,-2.697 -1.465,0 0,2.697 -1.521,0 0,-8.079003 c 1.279,0 2.56,0.012 3.838,0.012 1.902,0.013 2.904,1.279 2.904,2.674 0,1.106003 -0.507,2.225003 -2.039,2.535003 l 2.442,2.755 0,0.103 z m -5.624,-6.649003 0,2.582003 2.316,0 c 0.969,0 1.383,-0.646 1.383,-1.291 0,-0.646003 -0.426,-1.291003 -1.383,-1.291003 l -2.316,0 z" /><path
     inkscape:connector-curvature="0"
     style="fill:#666f77;fill-opacity:1"
     id="path339"
     d="m 151.14084,81.480815 -2.629,3.503003 -0.299,0 -2.57,-3.515003 0,5.866003 -1.521,0 0,-8.066003 1.752,0 2.523,3.468003 2.524,-3.468003 1.74,0 0,8.066003 -1.521,0 0,-5.854003 z" /><path
     inkscape:connector-curvature="0"
     style="fill:#666f77;fill-opacity:1"
     id="path341"
     d="m 159.81884,85.802818 -4.219,0 -0.691,1.521 -1.648,0 3.619,-8.067003 1.66,0 3.618,8.067003 -1.659,0 -0.68,-1.521 z m -2.11,-4.852003 -1.498,3.435003 2.996,0 -1.498,-3.435003 z" /><path
     inkscape:connector-curvature="0"
     style="fill:#666f77;fill-opacity:1"
     id="path343"
     d="m 165.55684,89.144818 c 0.335,0.45 1.233,0.507 1.371,0.045 0.127,-0.437 -0.541,-0.714 -0.979,-0.403 l -0.334,-0.265 0.356,-1.071 c -2.432,-0.322 -3.47,-2.202 -3.479,-4.104 -0.013,-2.108003 1.359,-4.252003 4.275,-4.252003 1.094,0 2.132,0.415 2.961,1.233 l -1.014,0.979 c -0.53,-0.519 -1.245,-0.761 -1.947,-0.761 -1.948,0 -2.789,1.451003 -2.777,2.800003 0.012,1.337 0.783,2.731 2.777,2.731 0.702,0 1.498,-0.288 2.027,-0.818 l 1.037,1.049 c -0.783,0.772 -1.774,1.153 -2.857,1.198 l -0.161,0.521 c 1.061,0.034 1.291,0.749 1.188,1.325 -0.287,1.337 -2.352,1.451 -3.055,0.312 l 0.611,-0.519 z" /><path
     inkscape:connector-curvature="0"
     style="fill:#666f77;fill-opacity:1"
     id="path345"
     d="m 176.05584,85.802818 -4.218,0 -0.691,1.521 -1.648,0 3.619,-8.067003 1.66,0 3.617,8.067003 -1.658,0 -0.681,-1.521 z m -4.194,-7.756003 c 0.276,-0.69 0.737,-1.187 1.521,-1.014 0.553,0.126 1.094,0.749 1.463,0.011 l 0.945,0.449 c -0.346,0.911 -0.934,1.188 -1.486,1.038 -0.588,-0.161 -1.096,-0.864 -1.557,0 l -0.886,-0.484 z m 2.086,2.904 -1.498,3.435003 2.996,0 -1.498,-3.435003 z" /><path
     inkscape:connector-curvature="0"
     style="fill:#666f77;fill-opacity:1"
     id="path347"
     d="m 186.88884,83.336818 c -0.023,2.086 -1.302,4.171 -4.137,4.171 -2.835,0 -4.149,-2.039 -4.149,-4.16 0,-2.119003 1.36,-4.252003 4.149,-4.252003 2.778,0 4.161,2.132 4.137,4.241003 z m -6.788,0.035 c 0.034,1.324 0.749,2.742 2.651,2.742 1.901,0 2.615,-1.43 2.639,-2.755 0.022,-1.36 -0.737,-2.882003 -2.639,-2.882003 -1.902,0.001 -2.685,1.534003 -2.651,2.895003 z" /></svg>