<?xml version="1.0" encoding="UTF-8" standalone="no"?>
<!-- Generator: Adobe Illustrator 16.0.0, SVG Export Plug-In . SVG Version: 6.00 Build 0)  -->

<svg
   xmlns:dc="http://purl.org/dc/elements/1.1/"
   xmlns:cc="http://creativecommons.org/ns#"
   xmlns:rdf="http://www.w3.org/1999/02/22-rdf-syntax-ns#"
   xmlns:svg="http://www.w3.org/2000/svg"
   xmlns="http://www.w3.org/2000/svg"
   xmlns:sodipodi="http://sodipodi.sourceforge.net/DTD/sodipodi-0.dtd"
   xmlns:inkscape="http://www.inkscape.org/namespaces/inkscape"
   version="1.1"
   id="Camada_1"
   x="0px"
   y="0px"
   width="245"
   height="100"
   viewBox="0 0 245.00001 100"
   enable-background="new 0 0 560.972 151.493"
   xml:space="preserve"
   sodipodi:docname="texto-mti-branco.svg"
   inkscape:version="0.92.3 (2405546, 2018-03-11)"><metadata
   id="metadata377"><rdf:RDF><cc:Work
       rdf:about=""><dc:format>image/svg+xml</dc:format><dc:type
         rdf:resource="http://purl.org/dc/dcmitype/StillImage" /><dc:title></dc:title></cc:Work></rdf:RDF></metadata><defs
   id="defs375">
	
	
	
	
	
	
	
	
	
	
	
	
	
	
	
	
	
	
	
	
	
	
	
	
	
	
	
	
	
	
	
	
	
	
	
	
	
	
	
	
	
	
	
	
	
	
	
	
	
	
	
	
	
	
	
	
	
</defs><sodipodi:namedview
   pagecolor="#ffffff"
   bordercolor="#666666"
   borderopacity="1"
   objecttolerance="10"
   gridtolerance="10"
   guidetolerance="10"
   inkscape:pageopacity="0"
   inkscape:pageshadow="2"
   inkscape:window-width="1920"
   inkscape:window-height="1017"
   id="namedview373"
   showgrid="false"
   inkscape:zoom="2.0672247"
   inkscape:cx="260.34766"
   inkscape:cy="17.562161"
   inkscape:window-x="-8"
   inkscape:window-y="-8"
   inkscape:window-maximized="1"
   inkscape:current-layer="Camada_1"
   fit-margin-top="0"
   fit-margin-left="0"
   fit-margin-right="0"
   fit-margin-bottom="0" />




























































































































<g
   id="g254"
   transform="matrix(2.0182296,0,0,2.0182296,-333.10072,-70.462103)"
   style="fill:#ffffff;fill-opacity:1">
	<path
   d="m 180.021,40.075 -5.606,7.475 h -0.64 l -5.483,-7.5 v 12.517 h -3.246 V 35.353 h 3.738 l 5.385,7.402 5.385,-7.402 h 3.713 v 17.213 h -3.245 V 40.075 Z"
   id="path248"
   inkscape:connector-curvature="0"
   style="fill:#ffffff;fill-opacity:1" />
	<path
   d="m 190.767,38.28 h -5.459 v -2.951 c 4.967,0 9.173,0 14.164,0 v 2.951 h -5.459 v 14.262 h -3.246 z"
   id="path250"
   inkscape:connector-curvature="0"
   style="fill:#ffffff;fill-opacity:1" />
	<path
   d="M 201.463,52.542 V 35.329 h 3.223 v 17.213 z"
   id="path252"
   inkscape:connector-curvature="0"
   style="fill:#ffffff;fill-opacity:1" />
</g><g
   id="g6726"
   style="fill:#ffffff;fill-opacity:1"><g
     transform="matrix(0.99721283,0,0,0.99721283,4.9362035e-8,-21.651184)"
     style="fill:#ffffff;fill-opacity:1"
     id="g5772"><path
       style="fill:#ffffff;fill-opacity:1;stroke-width:1.46046853"
       inkscape:connector-curvature="0"
       id="path256"
       d="M 8.8183088,78.61911 H -4.95e-8 c 0,-3.922818 0,-7.858781 0,-11.781599 H 8.8183088 v 2.155651 H 2.2053074 v 2.707709 h 6.3778659 v 2.070944 H 2.2053074 v 2.659514 h 6.6130014 z" /><path
       style="fill:#ffffff;fill-opacity:1;stroke-width:1.46046853"
       inkscape:connector-curvature="0"
       id="path258"
       d="m 20.802913,70.087053 -3.838111,5.114561 h -0.438141 l -3.753404,-5.132086 v 8.565648 h -2.221372 v -11.7816 h 2.558741 l 3.686222,5.066365 3.686223,-5.066365 h 2.539754 v 11.7816 h -2.221372 v -8.548123 z" /><path
       style="fill:#ffffff;fill-opacity:1;stroke-width:1.46046853"
       inkscape:connector-curvature="0"
       id="path260"
       d="M 30.665457,75.153419 H 27.334128 V 78.61911 H 25.112756 V 66.837511 c 1.851874,0 3.702287,-0.01607 5.554162,-0.01607 5.755706,0 5.771771,8.331973 -0.0015,8.331973 z m -3.331329,-2.037354 h 3.331329 c 2.844993,0 2.828928,-4.172558 0,-4.172558 h -3.331329 z" /><path
       style="fill:#ffffff;fill-opacity:1;stroke-width:1.46046853"
       inkscape:connector-curvature="0"
       id="path262"
       d="M 46.942378,78.61911 H 44.29893 L 40.865369,74.681687 H 38.727243 V 78.61911 H 36.505871 V 66.821446 c 1.867939,0 3.737338,0.01607 5.605278,0.01607 2.777811,0.01753 4.2412,1.8694 4.2412,3.906753 0,1.612357 -0.740457,3.248082 -2.979356,3.702288 l 3.567925,4.02213 v 0.150428 z m -8.213674,-9.712115 v 3.770929 h 3.382445 c 1.415194,0 2.019828,-0.943462 2.019828,-1.885464 0,-0.942003 -0.62216,-1.885465 -2.019828,-1.885465 z" /><path
       style="fill:#ffffff;fill-opacity:1;stroke-width:1.46046853"
       inkscape:connector-curvature="0"
       id="path264"
       d="m 56.636968,78.61911 h -8.819769 c 0,-3.922818 0,-7.858781 0,-11.781599 h 8.819769 v 2.155651 h -6.615922 v 2.707709 h 6.379326 v 2.070944 h -6.379326 v 2.659514 h 6.615922 z" /><path
       style="fill:#ffffff;fill-opacity:1;stroke-width:1.46046853"
       inkscape:connector-curvature="0"
       id="path266"
       d="m 65.624692,69.682504 c -0.40309,-0.671816 -1.514506,-1.311501 -2.792416,-1.311501 -1.65033,0 -2.441904,0.689341 -2.441904,1.564162 0,1.025249 1.212189,1.3115 2.624462,1.480915 2.459429,0.303777 4.747983,0.942002 4.747983,3.753404 0,2.627383 -2.323605,3.754864 -4.948067,3.754864 -2.406852,0 -4.258726,-0.743378 -5.135007,-2.896109 l 1.851874,-0.958067 c 0.521387,1.295435 1.885465,1.866479 3.315263,1.866479 1.397669,0 2.71063,-0.489257 2.71063,-1.767167 0,-1.112877 -1.161072,-1.565622 -2.725234,-1.735037 -2.406852,-0.286252 -4.629685,-0.925937 -4.629685,-3.567924 0,-2.421457 2.390787,-3.416036 4.561043,-3.433562 1.834348,0 3.737339,0.522848 4.628224,2.341131 z" /><path
       style="fill:#ffffff;fill-opacity:1;stroke-width:1.46046853"
       inkscape:connector-curvature="0"
       id="path268"
       d="m 77.844431,76.399198 h -6.160256 l -1.009183,2.221373 H 68.26814 l 5.283975,-11.7816 h 2.424377 l 5.285436,11.7816 H 78.83755 Z m -3.081588,-7.087653 -2.186321,5.016709 h 4.374103 z" /><path
       style="fill:#ffffff;fill-opacity:1;stroke-width:1.46046853"
       inkscape:connector-curvature="0"
       id="path270"
       d="m 95.751236,70.087053 -3.836651,5.114561 h -0.43668 l -3.753404,-5.132086 v 8.565648 h -2.221373 v -11.7816 h 2.557281 l 3.686222,5.066365 3.684762,-5.066365 h 2.541215 v 11.7816 h -2.221372 z" /><path
       style="fill:#ffffff;fill-opacity:1;stroke-width:1.46046853"
       inkscape:connector-curvature="0"
       id="path272"
       d="m 108.42664,76.399198 h -6.16025 l -1.00919,2.221373 h -2.40685 l 5.28544,-11.7816 h 2.42291 l 5.28398,11.7816 h -2.42292 z m -3.08013,-7.087653 -2.18778,5.016709 h 4.37557 z" /><path
       style="fill:#ffffff;fill-opacity:1;stroke-width:1.46046853"
       inkscape:connector-curvature="0"
       id="path274"
       d="m 115.71292,68.858799 h -3.73588 v -2.021288 c 3.39851,0 6.27855,0 9.69459,0 v 2.021288 h -3.73734 v 9.761772 h -2.22137 z" /><path
       style="fill:#ffffff;fill-opacity:1;stroke-width:1.46046853"
       inkscape:connector-curvature="0"
       id="path276"
       d="m 134.59969,72.797683 c -0.0336,3.045077 -1.90299,6.091614 -6.04196,6.091614 -4.14188,0 -6.06093,-2.977895 -6.06093,-6.077009 0,-3.096194 1.98769,-6.209912 6.06093,-6.209912 4.05572,0 6.07555,3.112258 6.04196,6.195307 z m -9.91366,0.04819 c 0.0497,1.936582 1.09389,4.006065 3.8717,4.006065 2.77489,0 3.81913,-2.087009 3.85418,-4.02359 0.0321,-1.984777 -1.07783,-4.20761 -3.85418,-4.20761 -2.77781,0 -3.92135,2.240359 -3.8717,4.225135 z" /><path
       style="fill:#ffffff;fill-opacity:1;stroke-width:1.46046853"
       inkscape:connector-curvature="0"
       id="path278"
       d="m 135.9959,72.188668 h 6.21138 v 1.885464 h -6.21138 z" /><path
       style="fill:#ffffff;fill-opacity:1;stroke-width:1.46046853"
       inkscape:connector-curvature="0"
       id="path280"
       d="m 152.69344,69.714634 c -0.79157,-0.757983 -1.96871,-1.177138 -2.99542,-1.177138 -2.52515,0 -4.05572,1.917595 -4.05572,4.341973 0,1.935121 1.12602,3.938884 4.05572,3.938884 0.92448,0 1.73504,-0.204466 2.65805,-0.943463 v -2.087009 h -3.01294 v -1.984777 h 5.04884 v 4.964132 c -1.16108,1.329027 -2.62593,2.120601 -4.69541,2.120601 -4.42668,0 -6.22744,-2.910714 -6.22744,-6.008368 0,-3.316724 2.06803,-6.377866 6.22744,-6.377866 1.58023,0 3.16338,0.604634 4.3741,1.799297 z" /><path
       style="fill:#ffffff;fill-opacity:1;stroke-width:1.46046853"
       inkscape:connector-curvature="0"
       id="path282"
       d="m 166.66282,78.61911 h -2.64344 l -3.43357,-3.937423 h -2.13812 v 3.937423 h -2.22137 V 66.821446 c 1.86793,0 3.73879,0.01607 5.60673,0.01607 2.77489,0.01753 4.23974,1.8694 4.23974,3.906753 0,1.612357 -0.74045,3.248082 -2.97935,3.702288 l 3.56792,4.02213 v 0.150428 z m -8.21367,-9.712115 v 3.770929 h 3.3839 c 1.41228,0 2.01837,-0.943462 2.01837,-1.885464 0,-0.942003 -0.62362,-1.885465 -2.01837,-1.885465 z" /><path
       style="fill:#ffffff;fill-opacity:1;stroke-width:1.46046853"
       inkscape:connector-curvature="0"
       id="path284"
       d="m 179.15129,72.797683 c -0.0321,3.045077 -1.90007,6.091614 -6.04196,6.091614 -4.14043,0 -6.05802,-2.977895 -6.05802,-6.077009 0,-3.096194 1.98477,-6.209912 6.05802,-6.209912 4.05718,0 6.07555,3.112258 6.04196,6.195307 z m -9.9122,0.04819 c 0.0482,1.936582 1.09389,4.006065 3.87024,4.006065 2.77635,0 3.82059,-2.087009 3.85418,-4.02359 0.0336,-1.984777 -1.07637,-4.20761 -3.85418,-4.20761 -2.77781,0 -3.92136,2.240359 -3.87024,4.225135 z" /><path
       style="fill:#ffffff;fill-opacity:1;stroke-width:1.46046853"
       inkscape:connector-curvature="0"
       id="path286"
       d="m 188.05577,69.682504 c -0.40309,-0.671816 -1.51451,-1.311501 -2.79388,-1.311501 -1.64887,0 -2.44044,0.689341 -2.44044,1.564162 0,1.025249 1.21073,1.3115 2.62592,1.480915 2.45797,0.303777 4.74652,0.942002 4.74652,3.753404 0,2.627383 -2.32214,3.754864 -4.94807,3.754864 -2.40685,0 -4.25872,-0.743378 -5.135,-2.896109 l 1.85333,-0.958067 c 0.51993,1.295435 1.88547,1.866479 3.31527,1.866479 1.39766,0 2.70916,-0.489257 2.70916,-1.767167 0,-1.112877 -1.16107,-1.565622 -2.72669,-1.735037 -2.40685,-0.286252 -4.62823,-0.925937 -4.62823,-3.567924 0,-2.421457 2.38933,-3.416036 4.56105,-3.433562 1.83581,0 3.73734,0.522848 4.62822,2.341131 z" /><path
       style="fill:#ffffff;fill-opacity:1;stroke-width:1.46046853"
       inkscape:connector-curvature="0"
       id="path288"
       d="m 199.18015,69.682504 c -0.40162,-0.671816 -1.51304,-1.311501 -2.79387,-1.311501 -1.64887,0 -2.43898,0.689341 -2.43898,1.564162 0,1.025249 1.21072,1.3115 2.62446,1.480915 2.45943,0.303777 4.74652,0.942002 4.74652,3.753404 0,2.627383 -2.32214,3.754864 -4.94807,3.754864 -2.40685,0 -4.25872,-0.743378 -5.13354,-2.896109 l 1.85187,-0.958067 c 0.52139,1.295435 1.88547,1.866479 3.31526,1.866479 1.39767,0 2.70917,-0.489257 2.70917,-1.767167 0,-1.112877 -1.16107,-1.565622 -2.72669,-1.735037 -2.40393,-0.286252 -4.62823,-0.925937 -4.62823,-3.567924 0,-2.421457 2.39225,-3.416036 4.56251,-3.433562 1.83435,0 3.73734,0.522848 4.62822,2.341131 z" /><path
       style="fill:#ffffff;fill-opacity:1;stroke-width:1.46046853"
       inkscape:connector-curvature="0"
       id="path290"
       d="m 211.82197,78.61911 h -8.81977 c 0,-3.922818 0,-7.858781 0,-11.781599 h 8.81977 v 2.155651 h -6.61592 v 2.707709 h 6.37932 v 2.070944 h -6.37932 v 2.659514 h 6.61592 z" /><path
       style="fill:#ffffff;fill-opacity:1;stroke-width:1.46046853"
       inkscape:connector-curvature="0"
       id="path292"
       d="m 221.28142,66.821446 h 2.22138 V 78.61911 h -1.38015 v 0.01753 l -6.19238,-7.961014 V 78.61911 H 213.7089 V 66.837511 h 1.80075 l 5.77323,7.305263 v -7.321328 z" /><path
       style="fill:#ffffff;fill-opacity:1;stroke-width:1.46046853"
       inkscape:connector-curvature="0"
       id="path294"
       d="m 232.8089,69.682504 c -0.40163,-0.671816 -1.51304,-1.311501 -2.79241,-1.311501 -1.65033,0 -2.44191,0.689341 -2.44191,1.564162 0,1.025249 1.21219,1.3115 2.62593,1.480915 2.45796,0.303777 4.74798,0.942002 4.74798,3.753404 0,2.627383 -2.32361,3.754864 -4.94953,3.754864 -2.40685,0 -4.25873,-0.743378 -5.13355,-2.896109 l 1.85042,-0.958067 c 0.52138,1.295435 1.88546,1.866479 3.31672,1.866479 1.39621,0 2.70917,-0.489257 2.70917,-1.767167 0,-1.112877 -1.16107,-1.565622 -2.72669,-1.735037 -2.40686,-0.286252 -4.62969,-0.925937 -4.62969,-3.567924 0,-2.421457 2.39079,-3.416036 4.56104,-3.433562 1.83581,0 3.73734,0.522848 4.62969,2.341131 z" /><path
       style="fill:#ffffff;fill-opacity:1;stroke-width:1.46046853"
       inkscape:connector-curvature="0"
       id="path296"
       d="m 245.45072,78.61911 h -8.81977 c 0,-3.922818 0,-7.858781 0,-11.781599 h 8.81977 v 2.155651 h -6.61446 v 2.707709 h 6.37786 v 2.070944 h -6.37786 v 2.659514 h 6.61446 z" /></g><g
     transform="matrix(0.99721283,0,0,0.99721283,0,2.2763755)"
     id="g6312"
     style="fill:#ffffff;fill-opacity:1"><path
       style="fill:#ffffff;fill-opacity:1;stroke-width:1.46046853"
       inkscape:connector-curvature="0"
       id="path298"
       d="m 10.52026,67.945337 c 0.04819,2.977895 -1.7686275,5.992302 -5.8915301,5.992302 -1.4473242,0 -3.1823608,0 -4.6282245779,0 V 62.15604 c 1.4458637779,0 3.1809003779,0 4.6282245779,0 4.0381955,-0.0015 5.8404131,2.877123 5.8915301,5.789297 z m -8.3144473,3.852716 h 2.4229172 c 2.6770388,0 3.7358785,-1.952647 3.6862225,-3.870242 C 8.263836,66.092002 7.1874708,64.259114 4.6287299,64.259114 H 2.2058127 Z" /><path
       style="fill:#ffffff;fill-opacity:1;stroke-width:1.46046853"
       inkscape:connector-curvature="0"
       id="path300"
       d="m 20.769828,73.936179 h -8.819769 c 0,-3.922819 0,-7.860242 0,-11.7816 h 8.819769 v 2.155652 H 14.155366 V 67.0194 h 6.379326 v 2.069484 h -6.379326 v 2.659513 h 6.614462 z" /><path
       style="fill:#ffffff;fill-opacity:1;stroke-width:1.46046853"
       inkscape:connector-curvature="0"
       id="path302"
       d="m 28.932386,64.174407 h -3.737339 v -2.019828 c 3.399971,0 6.278554,0 9.696051,0 v 2.019828 h -3.737339 v 9.763232 h -2.221373 z" /><path
       style="fill:#ffffff;fill-opacity:1;stroke-width:1.46046853"
       inkscape:connector-curvature="0"
       id="path304"
       d="m 45.023828,73.936179 h -8.819769 c 0,-3.922819 0,-7.860242 0,-11.7816 h 8.819769 v 2.155652 H 38.409366 V 67.0194 h 6.377866 v 2.069484 h -6.377866 v 2.659513 h 6.614462 z" /><path
       style="fill:#ffffff;fill-opacity:1;stroke-width:1.46046853"
       inkscape:connector-curvature="0"
       id="path306"
       d="m 57.12527,72.455264 c -1.212189,1.196123 -2.77635,1.749641 -4.476336,1.749641 -4.377024,0 -6.228898,-3.012947 -6.243503,-6.075549 -0.01899,-3.078668 1.984777,-6.209912 6.243503,-6.209912 1.597753,0 3.113719,0.606094 4.325908,1.800758 L 55.492466,65.15 c -0.774048,-0.757983 -1.818283,-1.111416 -2.843532,-1.111416 -2.843532,0 -4.073246,2.119139 -4.055721,4.089311 0.01753,1.952647 1.143547,3.98854 4.055721,3.98854 1.025249,0 2.187782,-0.420615 2.96037,-1.194663 z" /><path
       style="fill:#ffffff;fill-opacity:1;stroke-width:1.46046853"
       inkscape:connector-curvature="0"
       id="path308"
       d="m 65.591606,62.137054 h 2.221373 v 11.799125 h -1.380143 v 0.01753 l -6.192387,-7.962474 v 7.944949 h -2.221372 v -11.7816 h 1.799297 l 5.774693,7.305264 v -7.322789 z" /><path
       style="fill:#ffffff;fill-opacity:1;stroke-width:1.46046853"
       inkscape:connector-curvature="0"
       id="path310"
       d="m 81.430387,68.113291 c -0.03359,3.046537 -1.90299,6.091614 -6.041958,6.091614 -4.141889,0 -6.060945,-2.977895 -6.060945,-6.075549 0,-3.094733 1.986238,-6.209912 6.060945,-6.209912 4.05426,0 6.075549,3.113719 6.041958,6.193847 z m -9.915121,0.05112 c 0.05112,1.93366 1.095352,4.004605 3.873163,4.004605 2.77489,0 3.819125,-2.08847 3.854176,-4.023591 0.03359,-1.986237 -1.077826,-4.20907 -3.854176,-4.20907 -2.777811,0.0015 -3.922819,2.240359 -3.873163,4.228056 z" /><path
       style="fill:#ffffff;fill-opacity:1;stroke-width:1.46046853"
       inkscape:connector-curvature="0"
       id="path312"
       d="m 85.283103,62.154579 v 9.728181 h 6.059484 v 2.053419 H 83.06027 v -11.7816 z" /><path
       style="fill:#ffffff;fill-opacity:1;stroke-width:1.46046853"
       inkscape:connector-curvature="0"
       id="path314"
       d="m 104.4868,68.113291 c -0.0307,3.046537 -1.90007,6.091614 -6.040495,6.091614 -4.140428,0 -6.059483,-2.977895 -6.059483,-6.075549 0,-3.094733 1.984776,-6.209912 6.059483,-6.209912 4.054265,0 6.074085,3.113719 6.040495,6.193847 z m -9.912197,0.05112 c 0.05112,1.93366 1.095352,4.004605 3.871702,4.004605 2.776355,0 3.820585,-2.08847 3.854175,-4.023591 0.0321,-1.986237 -1.07636,-4.20907 -3.854175,-4.20907 -2.777811,0 -3.922818,2.240359 -3.871702,4.228056 z" /><path
       style="fill:#ffffff;fill-opacity:1;stroke-width:1.46046853"
       inkscape:connector-curvature="0"
       id="path316"
       d="m 114.87219,65.033163 c -0.79011,-0.760904 -1.96871,-1.180059 -2.99542,-1.180059 -2.52515,0 -4.05572,1.919056 -4.05572,4.341973 0,1.936581 1.12602,3.938884 4.05572,3.938884 0.92594,0 1.73504,-0.201545 2.65952,-0.943463 v -2.08701 h -3.01295 v -1.986237 h 5.04884 v 4.967054 c -1.16107,1.327566 -2.62446,2.117679 -4.69541,2.117679 -4.42668,0 -6.22743,-2.909253 -6.22743,-6.008367 0,-3.313803 2.06948,-6.377866 6.22743,-6.377866 1.58169,0 3.16338,0.606094 4.37557,1.800757 z" /><path
       style="fill:#ffffff;fill-opacity:1;stroke-width:1.46046853"
       inkscape:connector-curvature="0"
       id="path318"
       d="m 118.40653,73.936179 v -11.7816 h 2.20677 v 11.7816 z" /><path
       style="fill:#ffffff;fill-opacity:1;stroke-width:1.46046853"
       inkscape:connector-curvature="0"
       id="path320"
       d="m 131.06587,71.714806 h -6.16172 l -1.00918,2.221373 h -2.40685 l 5.28543,-11.7816 h 2.42438 l 5.28398,11.7816 h -2.42292 z m -3.08013,-7.086193 -2.18778,5.016709 h 4.37556 z" /><path
       style="fill:#ffffff;fill-opacity:1;stroke-width:1.46046853"
       inkscape:connector-curvature="0"
       id="path322"
       d="m 149.07345,67.945337 c 0.0511,2.977895 -1.76717,5.992302 -5.89007,5.992302 -1.44732,0 -3.1809,0 -4.62969,0 V 62.15604 c 1.44879,0 3.18237,0 4.62969,0 4.03966,-0.0015 5.84042,2.877123 5.89007,5.789297 z m -8.31445,3.852716 h 2.42438 c 2.67704,0 3.73734,-1.952647 3.68476,-3.870242 -0.0482,-1.835809 -1.12602,-3.668697 -3.68476,-3.668697 H 140.759 Z" /><path
       style="fill:#ffffff;fill-opacity:1;stroke-width:1.46046853"
       inkscape:connector-curvature="0"
       id="path324"
       d="m 158.90533,71.714806 h -6.16172 l -1.00772,2.221373 h -2.40686 l 5.28398,-11.7816 h 2.42438 l 5.28397,11.7816 h -2.42292 z m -3.08159,-7.086193 -2.18778,5.016709 h 4.37556 z" /></g><g
     transform="matrix(0.99721283,0,0,0.99721283,0,0.27637549)"
     id="g6334"
     style="fill:#ffffff;fill-opacity:1"><path
       style="fill:#ffffff;fill-opacity:1;stroke-width:1.46046853"
       inkscape:connector-curvature="0"
       id="path326"
       d="m 0,94.604281 v -11.7816 h 2.20531 v 11.7816 z" /><path
       style="fill:#ffffff;fill-opacity:1;stroke-width:1.46046853"
       inkscape:connector-curvature="0"
       id="path328"
       d="m 12.03426,82.805156 h 2.22138 v 11.799125 h -1.38015 v 0.01753 L 6.68165,86.659337 v 7.944949 H 4.46027 v -11.7816 h 1.80076 l 5.77323,7.305264 z" /><path
       style="fill:#ffffff;fill-opacity:1;stroke-width:1.46046853"
       inkscape:connector-curvature="0"
       id="path330"
       d="M 16.29299,94.604281 V 82.840207 h 8.46487 v 2.136665 h -6.24204 v 3.214492 h 5.90614 v 2.053418 h -5.90614 v 4.358038 h -2.22283 z" /><path
       style="fill:#ffffff;fill-opacity:1;stroke-width:1.46046853"
       inkscape:connector-curvature="0"
       id="path332"
       d="m 37.86995,88.781393 c -0.0336,3.046537 -1.90299,6.091614 -6.04196,6.091614 -4.14189,0 -6.06094,-2.977895 -6.06094,-6.075549 0,-3.094733 1.98624,-6.209912 6.06094,-6.209912 4.05572,0 6.07555,3.113719 6.04196,6.193847 z m -9.91512,0.05112 c 0.0511,1.93366 1.09535,4.004605 3.87316,4.004605 2.77635,0 3.81913,-2.08847 3.85418,-4.023591 0.0321,-1.986237 -1.07637,-4.20907 -3.85418,-4.20907 -2.77781,0.0015 -3.92136,2.240359 -3.87316,4.228056 z" /><path
       style="fill:#ffffff;fill-opacity:1;stroke-width:1.46046853"
       inkscape:connector-curvature="0"
       id="path334"
       d="m 49.95533,94.604281 h -2.64345 l -3.4321,-3.938884 h -2.13959 v 3.938884 H 39.51882 V 82.805156 c 1.86794,0 3.7388,0.01752 5.60528,0.01752 2.77781,0.01899 4.2412,1.86794 4.2412,3.905293 0,1.615278 -0.74046,3.249542 -2.9779,3.702288 l 3.56647,4.02359 v 0.150429 z m -8.21368,-9.710655 v 3.770929 h 3.38245 c 1.41519,0 2.01983,-0.943462 2.01983,-1.885465 0,-0.943462 -0.62216,-1.885464 -2.01983,-1.885464 z" /><path
       style="fill:#ffffff;fill-opacity:1;stroke-width:1.46046853"
       inkscape:connector-curvature="0"
       id="path336"
       d="m 61.13229,86.070763 -3.83957,5.116021 h -0.43668 l -3.7534,-5.133546 v 8.567108 H 50.88126 V 82.840207 h 2.55875 l 3.68476,5.064905 3.68622,-5.064905 h 2.54121 v 11.780139 h -2.22137 v -8.549583 z" /><path
       style="fill:#ffffff;fill-opacity:1;stroke-width:1.46046853"
       inkscape:connector-curvature="0"
       id="path338"
       d="m 73.80624,92.382908 h -6.16172 l -1.00918,2.221373 h -2.40685 l 5.28543,-11.7816 h 2.42438 l 5.28397,11.7816 h -2.42291 z m -3.08159,-7.086193 -2.18778,5.016709 h 4.37556 z" /><path
       style="fill:#ffffff;fill-opacity:1;stroke-width:1.46046853"
       inkscape:connector-curvature="0"
       id="path340"
       d="m 82.18641,97.263793 c 0.48925,0.65721 1.80075,0.74046 2.0023,0.0657 0.18548,-0.63822 -0.79011,-1.04277 -1.4298,-0.58857 l -0.4878,-0.38702 0.51993,-1.564163 c -3.55186,-0.470271 -5.06783,-3.215951 -5.08097,-5.993763 -0.019,-3.078667 1.98478,-6.209912 6.2435,-6.209912 1.59776,0 3.11372,0.606095 4.32445,1.800758 l -1.48091,1.429799 c -0.77405,-0.757983 -1.81829,-1.111417 -2.84354,-1.111417 -2.84499,0 -4.07324,2.11914 -4.05572,4.089312 0.0175,1.952646 1.14355,3.988539 4.05572,3.988539 1.02525,0 2.18779,-0.420614 2.96037,-1.194663 l 1.51451,1.532032 c -1.14355,1.127481 -2.59087,1.68392 -4.17256,1.749641 l -0.23514,0.760907 c 1.54956,0.0496 1.88547,1.09389 1.73504,1.93512 -0.41915,1.95264 -3.43502,2.11914 -4.46173,0.45566 z" /><path
       style="fill:#ffffff;fill-opacity:1;stroke-width:1.46046853"
       inkscape:connector-curvature="0"
       id="path342"
       d="m 97.51987,92.382908 h -6.16026 l -1.00918,2.221373 h -2.40686 l 5.28544,-11.7816 h 2.42438 l 5.28251,11.7816 H 98.51444 Z M 91.39466,81.055514 c 0.40309,-1.007723 1.07637,-1.733576 2.22137,-1.480915 0.80764,0.184019 1.59776,1.093891 2.13667,0.01607 l 1.38014,0.65575 c -0.50532,1.330487 -1.36408,1.735036 -2.17026,1.515966 -0.85875,-0.235135 -1.60067,-1.261845 -2.27394,0 z m 3.04654,4.241201 -2.18778,5.016709 h 4.37556 z" /><path
       style="fill:#ffffff;fill-opacity:1;stroke-width:1.46046853"
       inkscape:connector-curvature="0"
       id="path344"
       d="m 113.34112,88.781393 c -0.0336,3.046537 -1.90153,6.091614 -6.04196,6.091614 -4.14043,0 -6.05948,-2.977895 -6.05948,-6.075549 0,-3.094733 1.98624,-6.209912 6.05948,-6.209912 4.05718,0 6.07701,3.113719 6.04196,6.193847 z m -9.91366,0.05112 c 0.0497,1.93366 1.09389,4.004605 3.8717,4.004605 2.77635,0 3.81913,-2.08847 3.85418,-4.023591 0.0321,-1.986237 -1.07637,-4.20907 -3.85418,-4.20907 -2.77781,0.0015 -3.92136,2.240359 -3.8717,4.228056 z" /></g></g>
</svg>